<?xml version="1.0" encoding="UTF-8"?>
<svg id="Layer_1" xmlns="http://www.w3.org/2000/svg" version="1.1" viewBox="0 0 1920 1080">
  <!-- Generator: Adobe Illustrator 29.6.1, SVG Export Plug-In . SVG Version: 2.1.1 Build 9)  -->
  <defs>
    <style>
      .st0 {
        fill: #74acdf;
      }

      .st1, .st2, .st3 {
        opacity: .05;
      }

      .st1, .st4 {
        fill: #fff;
      }

      .st5 {
        fill: #f6b40e;
      }

      .st3 {
        fill: none;
        stroke: #000;
        stroke-linecap: round;
        stroke-linejoin: round;
        stroke-width: .5px;
      }
    </style>
  </defs>
  <rect class="st4" x="381" y="435.45" width="1158.67" height="190.1"/>
  <rect class="st0" x="381" y="245.35" width="1158.67" height="190.1"/>
  <rect class="st0" x="381" y="625.54" width="1158.67" height="190.1"/>
  <polygon class="st5" points="1031.97 516.01 1031.97 563.99 1023.97 563.99 1023.97 579.98 1015.97 579.98 1015.97 587.98 999.98 587.98 999.98 603.97 983.99 603.97 983.99 611.97 936.01 611.97 936.01 603.97 920.02 603.97 920.02 587.98 904.03 587.98 904.03 579.98 896.03 579.98 896.03 563.99 888.03 563.99 888.03 516.01 896.03 516.01 896.03 500.02 904.03 500.02 904.03 492.02 920.02 492.02 920.02 476.03 936.01 476.03 936.01 468.03 983.99 468.03 983.99 476.03 999.98 476.03 999.98 484.03 1015.97 484.03 1015.97 500.02 1023.97 500.02 1023.97 516.01 1031.97 516.01"/>
  <g>
    <polygon class="st2" points="1520.79 796.63 1292.67 796.63 1292.67 777.62 1387.72 777.62 1387.72 758.61 1425.74 758.61 1425.74 739.6 1482.77 739.6 1482.77 720.59 1501.78 720.59 1501.78 701.58 1520.79 701.58 1520.79 796.63"/>
    <polygon class="st1" points="399.21 264.36 418.22 264.36 418.22 245.35 456.24 245.35 456.24 264.36 703.37 264.36 703.37 283.37 627.33 283.37 627.33 302.38 513.27 302.38 513.27 321.39 418.22 321.39 418.22 340.4 399.21 340.4 399.21 264.36"/>
    <polygon class="st2" points="1159.6 796.63 988.51 796.63 988.51 777.62 1045.54 777.62 1045.54 758.61 1159.6 758.61 1159.6 796.63"/>
    <polygon class="st3" points="1007.52 568.51 1007.52 549.5 1026.53 549.5 1026.53 606.53 969.5 606.53 969.5 587.52 988.51 587.52 988.51 568.51 1007.52 568.51"/>
    <polygon class="st1" points="912.48 473.47 912.48 454.46 950.5 454.46 950.5 473.47 931.49 473.47 931.49 511.49 893.47 511.49 893.47 473.47 912.48 473.47"/>
    <polygon class="st2" points="1159.6 758.61 1159.6 796.63 988.51 796.63 988.51 777.62 1045.54 777.62 1045.54 758.61 1159.6 758.61"/>
    <polygon class="st1" points="950.5 454.46 950.5 473.47 931.49 473.47 931.49 511.49 893.47 511.49 893.47 473.47 912.48 473.47 912.48 454.46 950.5 454.46"/>
    <polygon class="st2" points="1520.79 701.58 1520.79 796.63 1292.67 796.63 1292.67 777.62 1387.72 777.62 1387.72 758.61 1425.74 758.61 1425.74 739.6 1482.77 739.6 1482.77 720.59 1501.78 720.59 1501.78 701.58 1520.79 701.58"/>
    <polygon class="st2" points="1026.53 549.5 1026.53 606.53 969.5 606.53 969.5 587.52 988.51 587.52 988.51 568.51 1007.52 568.51 1007.52 549.5 1026.53 549.5"/>
    <polygon class="st1" points="703.37 264.36 703.37 283.37 627.33 283.37 627.33 302.38 513.27 302.38 513.27 321.39 418.22 321.39 418.22 340.4 399.21 340.4 399.21 264.36 418.22 264.36 418.22 245.35 456.24 245.35 456.24 264.36 703.37 264.36"/>
  </g>
</svg>