<?xml version="1.0" encoding="UTF-8"?>
<svg id="Layer_1" xmlns="http://www.w3.org/2000/svg" version="1.1" viewBox="0 0 1920 1080">
  <!-- Generator: Adobe Illustrator 29.6.1, SVG Export Plug-In . SVG Version: 2.1.1 Build 9)  -->
  <defs>
    <style>
      .st0, .st1 {
        opacity: .05;
      }

      .st0, .st2 {
        fill: #fff;
      }

      .st3 {
        fill: none;
      }

      .st4 {
        fill: #302681;
      }

      .st5 {
        fill: #ffcb00;
      }

      .st6 {
        fill: #009440;
      }
    </style>
  </defs>
  <g>
    <rect class="st6" x="366.6" y="232.04" width="1186.8" height="615.92"/>
    <g>
      <path class="st3" d="M503.77,520.55h19.01v-19.01h38.02v-19.01h38.02v-19.01h38.02v-19.01h38.02v-19.01h38.02v-19.01h38.02v-19.01h38.02v-19.01h38.02v-19.01h38.02v-19.01h38.02v-19.01h38.02v-19.01h19v247.13h-456.23v-19.01Z"/>
      <polygon class="st5" points="503.77 540.43 959.99 540.43 959.99 787.57 940.99 787.57 940.99 768.55 902.97 768.55 902.97 749.54 864.96 749.54 864.96 730.53 826.93 730.53 826.93 711.52 788.91 711.52 788.91 692.52 750.9 692.52 750.9 673.51 712.88 673.51 712.88 653.49 674.85 653.49 674.85 635.48 636.84 635.48 636.84 616.47 598.82 616.47 598.82 597.46 560.79 597.46 560.79 578.46 522.78 578.46 522.78 559.45 503.77 559.45 503.77 540.43"/>
      <polygon class="st5" points="960.01 540.43 1416.23 540.43 1416.23 559.45 1397.22 559.45 1397.22 578.46 1359.2 578.46 1359.2 597.46 1321.18 597.46 1321.18 616.47 1283.16 616.47 1283.16 635.48 1245.15 635.48 1245.15 654.49 1207.12 654.49 1207.12 673.51 1169.1 672.51 1169.1 692.52 1131.09 692.52 1131.09 711.52 1093.07 711.52 1093.07 730.53 1055.05 730.53 1055.05 749.54 1017.03 749.54 1017.03 768.55 979.01 768.55 979.01 787.57 960.01 787.57 960.01 540.43"/>
      <polygon class="st5" points="940.99 293.43 959.99 293.43 959.99 540.57 503.77 540.57 503.77 521.55 522.78 521.55 522.78 502.54 560.79 502.54 560.79 483.53 598.82 483.53 598.82 464.52 636.84 464.52 636.84 445.52 674.85 445.52 674.85 426.51 712.88 426.51 712.88 407.49 750.9 407.49 750.9 388.48 788.91 388.48 788.91 369.47 826.93 369.47 826.93 350.46 864.96 350.46 864.96 331.46 902.97 331.46 902.97 312.45 940.99 312.45 940.99 293.43"/>
      <polygon class="st5" points="1416.23 521.55 1416.23 540.57 960.01 540.57 960.01 293.43 979.01 293.43 979.01 312.45 1017.03 312.45 1017.03 331.46 1055.05 331.46 1055.05 350.46 1093.07 350.46 1093.07 369.47 1131.09 369.47 1131.09 388.48 1169.1 388.48 1169.1 407.49 1207.12 407.49 1207.12 426.51 1245.15 426.51 1245.15 445.52 1283.16 445.52 1283.16 464.52 1321.18 464.52 1321.18 483.53 1359.2 483.53 1359.2 502.54 1397.22 502.54 1397.22 521.55 1416.23 521.55"/>
    </g>
    <polygon class="st4" points="1131.09 482.98 1131.09 597.02 1112.08 597.02 1112.08 635.05 1093.07 635.05 1093.07 654.06 1055.05 654.06 1055.05 692.08 1017.02 692.08 1017.02 711.08 902.97 711.08 902.97 692.08 864.95 692.08 864.95 654.06 826.93 654.06 826.93 635.05 807.92 635.05 807.92 597.02 788.91 597.02 788.91 482.98 807.92 482.98 807.92 444.96 826.93 444.96 826.93 425.95 864.95 425.95 864.95 387.93 902.97 387.93 902.97 368.92 1017.02 368.92 1017.02 387.93 1055.05 387.93 1055.05 406.94 1093.07 406.94 1093.07 444.96 1112.08 444.96 1112.08 482.98 1131.09 482.98"/>
  </g>
  <g>
    <path class="st3" d="M863.32,553.94h19.01v19.01h-19.01v-19.01ZM939.36,553.94v19.01h-19.01v-19.01h19.01ZM863.32,629.98v-19.01h19.01v19.01h-19.01ZM958.37,629.98v-19.01h19v19.01h-19ZM1091.43,610.97h-19.01v-19.01h19.01v19.01ZM882.33,553.94v19.01M882.33,572.95h-19.01v-19.01h19.01v19.01ZM939.36,553.94v19.01h-19.01v-19.01h19.01ZM825.3,515.93v19.01h-19.01v-19.01h19.01ZM863.32,629.98v-19.01h19.01v19.01h-19.01ZM958.37,629.98v-19.01h19v19.01h-19ZM1091.43,610.97h-19.01v-19.01h19.01v19.01ZM1129.45,648.99h-19.01v19.01M863.32,553.94h19.01v19.01h-19.01v-19.01ZM920.35,572.95v-19.01h19.01v19.01h-19.01ZM1091.43,610.97h-19.01v-19.01h19.01v19.01ZM825.3,382.86v19.01h19.01v-19.01h-19.01ZM787.28,401.87v19.01h38.02v-19.01h-38.02ZM787.28,401.87v19.01h38.02v-19.01h-38.02ZM825.3,382.86v19.01h19.01v-19.01h-19.01ZM1129.45,648.99h-19.01v19.01M825.3,382.86v19.01h19.01v-19.01h-19.01ZM787.28,401.87v19.01h38.02v-19.01h-38.02ZM863.32,553.94h19.01v19.01h-19.01v-19.01ZM825.3,515.93v19.01h-19.01v-19.01h19.01ZM920.35,572.95v-19.01h19.01v19.01h-19.01ZM1091.43,610.97h-19.01v-19.01h19.01v19.01ZM787.28,401.87v19.01h38.02v-19.01h-38.02ZM825.3,382.86v19.01h19.01v-19.01h-19.01ZM1034.4,706.02v19.01h-19.01v19.01h38.02v-19.01h19.01v-19.01h-38.02ZM1034.4,706.02v19.01h-19.01v19.01h38.02v-19.01h19.01v-19.01h-38.02ZM977.37,629.98h-19v-19.01h19v19.01ZM920.35,687.01h-19.01v-19.01h19.01v19.01ZM882.33,572.95h-19.01v-19.01h19.01v19.01ZM1091.43,591.96v19.01h-19.01v-19.01h19.01ZM939.36,553.94v19.01h-19.01v-19.01h19.01ZM825.3,515.93v19.01h-19.01v-19.01h19.01ZM863.32,610.97h19.01v19.01h-19.01v-19.01ZM844.31,382.86h-19.01v19.01h19.01v-19.01ZM825.3,420.88v-19.01h-38.02v19.01h38.02ZM388.07,249.79h266.14v19.01h-38.02v19.01h-57.03v19.01h-76.04v19.01h-38.02v19.01h-57.03v-95.05ZM1528.66,839.09h-190.1v-38.02h38.02v-19.01h76.04v-38.02h38.02v-38.02h19.01v-38.02h19.01v171.09ZM806.29,363.85v-19.01h19.01v-19.01h38.02v-19.01h57.03v-19.01h38.02v38.02h-38.02v19.01h-38.02v19.01h-38.02v19.01h57.03v-19.01h76.03v19.01h-57.02v19.01h-57.03v19.01h-19.01v19.01h-38.02v19.01h38.02v19.01h38.02v19.01h57.03v19.01h76.03v19.01h76.04v19h38.02v-38.01h19.01v114.05h-19.01v19.01h-19.01v19.01h-19.01v19.01h-19.01v19.01h38.02v-19.01h57.03v-19.01h38.02v-19.01h38.02v-19.01h38.02v-19.01h38.02v-19.01h38.02v-19.01h19.01v-19.01h19.01v-19h19.01v-19.01h19.01v57.02h-38.02v19.01h-19.01v19.01h-38.02v19.01h-38.02v19.01h-38.02v19.01h-38.02v19.01h-38.02v19.01h-38.02v19.01h-19.01v19.01h-38.02v19.01h-19.01v19.01h-57.03v19.01h-57.02v-19.01h19v-19.01h38.02v-19.01h-38.02v-38.02h38.02v-19.01h19.01v-19.01h19.01v-19.01h38.02v-19.01h19.01v-38.02h19.01v-19.01h-57.03v-19.01h-76.04v-19h-76.03v-19.01h-57.03v-19.01h-38.02v-19.01h-19.01v19.01h-19.01v19.01h-38.02v-38.02h19.01v-38.02h19.01v-19.01h-57.03v19.01h-57.03v19.01h-19.01v19.01h-76.04v38.02h-57.03v19.01h-19.01v-38.02h57.03v-38.02h76.04v-19.01h19.01v-19.01h38.02v-19.01h19.01v-19.01h38.02M806.29,515.93h19.01v19.01h-19.01v-19.01ZM1091.43,610.97h-19.01v-19.01h19.01v19.01ZM977.37,629.98h-19v-19.01h19v19.01ZM920.35,687.01h-19.01v-19.01h19.01v19.01ZM882.33,629.98h-19.01v-19.01h19.01v19.01ZM882.33,572.95h-19.01v-19.01h19.01v19.01ZM939.36,572.95h-19.01v-19.01h19.01v19.01ZM1034.4,706.02v19.01h-19.01v19.01h38.02v-19.01h19.01v-19.01h-38.02ZM825.3,401.87h19.01v-19.01h-19.01v19.01ZM825.3,420.88v-19.01h-38.02v19.01h38.02ZM787.28,401.87v19.01h38.02v-19.01h-38.02ZM825.3,382.86v19.01h19.01v-19.01h-19.01ZM977.37,629.98h-19v-19.01h19v19.01ZM920.35,687.01h-19.01v-19.01h19.01v19.01ZM882.33,572.95h-19.01v-19.01h19.01v19.01ZM1091.43,591.96v19.01h-19.01v-19.01h19.01ZM939.36,553.94v19.01h-19.01v-19.01h19.01ZM825.3,515.93v19.01h-19.01v-19.01h19.01ZM863.32,610.97h19.01v19.01h-19.01v-19.01ZM1034.4,706.02v19.01h-19.01v19.01h38.02v-19.01h19.01v-19.01h-38.02ZM1034.4,706.02v19.01h-19.01v19.01h38.02v-19.01h19.01v-19.01h-38.02ZM825.3,382.86v19.01h19.01v-19.01h-19.01ZM787.28,401.87v19.01h38.02v-19.01h-38.02ZM939.36,553.94v19.01h-19.01v-19.01h19.01ZM863.32,553.94h19.01v19.01h-19.01v-19.01ZM825.3,515.93v19.01h-19.01v-19.01h19.01ZM1091.43,610.97h-19.01v-19.01h19.01v19.01ZM787.28,401.87v19.01h38.02v-19.01h-38.02ZM825.3,382.86v19.01h19.01v-19.01h-19.01ZM1129.45,648.99h-19.01v19.01M1129.45,648.99h-19.01v19.01M863.32,553.94h19.01v19.01h-19.01v-19.01ZM920.35,572.95v-19.01h19.01v19.01h-19.01ZM1091.43,610.97h-19.01v-19.01h19.01v19.01ZM825.3,382.86v19.01h19.01v-19.01h-19.01ZM787.28,401.87v19.01h38.02v-19.01h-38.02Z"/>
    <path class="st3" d="M882.33,553.94"/>
    <path class="st3" d="M920.35,553.94"/>
    <path class="st3" d="M882.33,572.95"/>
    <path class="st3" d="M920.35,572.95"/>
    <polygon class="st1" points="1528.66 668 1528.66 839.09 1338.56 839.09 1338.56 801.07 1376.58 801.07 1376.58 782.06 1452.62 782.06 1452.62 744.04 1490.64 744.04 1490.64 706.02 1509.65 706.02 1509.65 668 1528.66 668"/>
    <rect class="st2" x="901.34" y="668" width="19.01" height="19.01"/>
    <rect class="st2" x="958.37" y="610.97" width="19" height="19.01"/>
    <polygon class="st1" points="1433.61 515.93 1433.61 572.95 1395.59 572.95 1395.59 591.96 1376.58 591.96 1376.58 610.97 1338.56 610.97 1338.56 629.98 1300.54 629.98 1300.54 648.99 1262.52 648.99 1262.52 668 1224.5 668 1224.5 687.01 1186.48 687.01 1186.48 706.02 1148.46 706.02 1148.46 725.03 1129.45 725.03 1129.45 744.04 1091.43 744.04 1091.43 763.05 1072.42 763.05 1072.42 782.06 1015.39 782.06 1015.39 801.07 958.37 801.07 958.37 782.06 977.37 782.06 977.37 763.05 1015.39 763.05 1015.39 744.04 1053.41 744.04 1053.41 725.03 1072.42 725.03 1072.42 706.02 1110.44 706.02 1110.44 687.01 1167.47 687.01 1167.47 668 1205.49 668 1205.49 648.99 1243.51 648.99 1243.51 629.98 1281.53 629.98 1281.53 610.97 1319.55 610.97 1319.55 591.96 1357.57 591.96 1357.57 572.95 1376.58 572.95 1376.58 553.94 1395.59 553.94 1395.59 534.94 1414.6 534.94 1414.6 515.93 1433.61 515.93"/>
    <rect class="st2" x="920.35" y="553.94" width="19.01" height="19.01"/>
    <path class="st3" d="M1129.45,648.99"/>
    <path class="st3" d="M1129.45,687.01"/>
    <path class="st3" d="M1110.44,572.95"/>
    <path class="st3" d="M1110.44,591.96"/>
    <rect class="st2" x="1072.42" y="591.96" width="19.01" height="19.01"/>
    <path class="st3" d="M1091.43,572.95"/>
    <path class="st3" d="M1091.43,591.96"/>
    <path class="st3" d="M1072.42,572.95"/>
    <path class="st3" d="M1072.42,591.96"/>
    <path class="st3" d="M1034.4,725.03"/>
    <path class="st3" d="M1034.4,744.04"/>
    <path class="st3" d="M939.36,534.94"/>
    <path class="st3" d="M939.36,553.94"/>
    <path class="st3" d="M920.35,534.94"/>
    <path class="st3" d="M920.35,553.94"/>
    <path class="st3" d="M882.33,553.94"/>
    <path class="st3" d="M882.33,515.93"/>
    <path class="st3" d="M863.32,553.94"/>
    <path class="st3" d="M863.32,515.93"/>
    <polygon class="st2" points="1129.45 553.94 1129.45 572.95 1072.42 572.95 1072.42 553.94 996.38 553.94 996.38 534.94 920.35 534.94 920.35 515.93 863.32 515.93 863.32 496.92 825.3 496.92 825.3 477.91 806.29 477.91 806.29 458.9 844.31 458.9 844.31 477.91 882.33 477.91 882.33 496.92 939.36 496.92 939.36 515.93 1015.39 515.93 1015.39 534.94 1091.43 534.94 1091.43 553.94 1129.45 553.94"/>
    <rect class="st2" x="863.32" y="610.97" width="19.01" height="19.01"/>
    <rect class="st2" x="806.29" y="515.93" width="19.01" height="19.01"/>
    <rect class="st2" x="863.32" y="553.94" width="19.01" height="19.01"/>
    <polyline class="st0" points="806.29 363.85 806.29 344.84 825.3 344.84 825.3 325.83 863.32 325.83 863.32 306.82 920.35 306.82 920.35 287.81 958.37 287.81 958.37 325.83 920.35 325.83 920.35 344.84 882.33 344.84 882.33 363.85 844.31 363.85 844.31 382.86 825.3 382.86 825.3 401.87 787.28 401.87 787.28 420.88 730.25 420.88 730.25 439.89 673.22 439.89 673.22 458.9 654.21 458.9 654.21 477.91 578.17 477.91 578.17 515.93 521.14 515.93 521.14 534.94 502.13 534.94 502.13 496.92 559.16 496.92 559.16 458.9 635.2 458.9 635.2 439.89 654.21 439.89 654.21 420.88 692.23 420.88 692.23 401.87 711.24 401.87 711.24 382.86 749.26 382.86"/>
    <polygon class="st0" points="977.37 363.85 977.37 382.86 920.35 382.86 920.35 401.87 863.32 401.87 863.32 420.88 844.31 420.88 844.31 439.89 806.29 439.89 806.29 496.92 787.28 496.92 787.28 515.93 749.26 515.93 749.26 477.91 768.27 477.91 768.27 439.89 787.28 439.89 787.28 420.88 825.3 420.88 825.3 401.87 844.31 401.87 844.31 382.86 901.34 382.86 901.34 363.85 977.37 363.85"/>
    <polygon class="st1" points="1148.46 515.93 1148.46 629.98 1129.45 629.98 1129.45 648.99 1110.44 648.99 1110.44 668 1091.43 668 1091.43 687.01 1072.42 687.01 1072.42 706.02 1034.4 706.02 1034.4 725.03 1015.39 725.03 1015.39 744.04 977.37 744.04 977.37 706.02 1015.39 706.02 1015.39 687.01 1034.4 687.01 1034.4 668 1053.41 668 1053.41 648.99 1091.43 648.99 1091.43 629.98 1110.44 629.98 1110.44 591.96 1129.45 591.96 1129.45 515.93 1148.46 515.93"/>
    <polygon class="st0" points="654.21 249.79 654.21 268.8 616.19 268.8 616.19 287.81 559.16 287.81 559.16 306.82 483.12 306.82 483.12 325.83 445.1 325.83 445.1 344.84 388.07 344.84 388.07 249.79 654.21 249.79"/>
  </g>
</svg>