<?xml version="1.0" encoding="UTF-8"?>
<svg id="Layer_1" xmlns="http://www.w3.org/2000/svg" version="1.1" viewBox="0 0 1920 1080">
  <!-- Generator: Adobe Illustrator 29.6.1, SVG Export Plug-In . SVG Version: 2.1.1 Build 9)  -->
  <defs>
    <style>
      .st0, .st1 {
        opacity: .05;
      }

      .st0, .st2 {
        fill: #fff;
      }

      .st3 {
        fill: #fff13e;
      }

      .st4 {
        fill: #fd0;
      }

      .st5 {
        fill: none;
      }

      .st6 {
        fill: #25da3f;
      }

      .st7 {
        fill: #004ca3;
      }

      .st8 {
        fill: #330e08;
      }

      .st2 {
        opacity: .1;
      }

      .st9 {
        fill: #dbd7d8;
      }

      .st10 {
        fill: #005ca0;
      }

      .st11 {
        fill: #c61a3b;
      }

      .st12 {
        fill: #ee151e;
      }
    </style>
  </defs>
  <rect class="st4" x="343" y="218.73" width="1186.8" height="307.96"/>
  <rect class="st7" x="343" y="526.69" width="1186.8" height="153.98"/>
  <rect class="st12" x="343" y="680.67" width="1186.8" height="153.98"/>
  <path class="st5" d="M931.49,416.44v19.01h-19.01v19.01h38.02v-38.02h-19.01ZM931.49,416.44v19.01h-19.01v19.01h38.02v-38.02h-19.01ZM931.49,416.44v19.01h-19.01v19.01h38.02v-38.02h-19.01ZM931.49,416.44v19.01h-19.01v19.01h38.02v-38.02h-19.01ZM931.49,416.44v19.01h-19.01v19.01h38.02v-38.02h-19.01ZM931.49,416.44v19.01h-19.01v19.01h38.02v-38.02h-19.01ZM931.49,416.44v19.01h-19.01v19.01h38.02v-38.02h-19.01ZM931.49,416.44v19.01h-19.01v19.01h38.02v-38.02h-19.01ZM931.49,416.44v19.01h-19.01v19.01h38.02v-38.02h-19.01ZM931.49,416.44v19.01h-19.01v19.01h38.02v-38.02h-19.01ZM931.49,416.44v19.01h-19.01v19.01h38.02v-38.02h-19.01ZM931.49,416.44v19.01h-19.01v19.01h38.02v-38.02h-19.01ZM931.49,435.45h-19.01v19.01h38.02v-38.02h-19.01v19.01ZM931.49,416.44v19.01h-19.01v19.01h38.02v-38.02h-19.01ZM931.49,416.44v19.01h-19.01v19.01h38.02v-38.02h-19.01ZM931.49,416.44v19.01h-19.01v19.01h38.02v-38.02h-19.01ZM931.49,416.44v19.01h-19.01v19.01h38.02v-38.02h-19.01ZM931.49,416.44v19.01h-19.01v19.01h38.02v-38.02h-19.01ZM931.49,435.45h-19.01v19.01h38.02v-38.02h-19.01v19.01ZM931.49,416.44v19.01h-19.01v19.01h38.02v-38.02h-19.01ZM931.49,416.44v19.01h-19.01v19.01h38.02v-38.02h-19.01ZM931.49,435.45h-19.01v19.01h38.02v-38.02h-19.01v19.01ZM931.49,435.45h-19.01v19.01h38.02v-38.02h-19.01v19.01ZM361.19,226.34h266.14v19.01h19.01v19.01h-190.1v38.02h-57.03v19.01h-38.02v-95.05ZM1520.79,815.64h-19.01v19.01h-209.11v-38.02h57.03v-19.01h38.02v-19.01h76.04v-38.02h19.01v-19.01h19.01v19.01h19.01v95.05ZM950.5,454.46v-38.02h-19.01v19.01h-19.01v19.01h38.02ZM931.49,435.45h-19.01v19.01h38.02v-38.02h-19.01v19.01ZM931.49,416.44v19.01h-19.01v19.01h38.02v-38.02h-19.01ZM931.49,416.44v19.01h-19.01v19.01h38.02v-38.02h-19.01ZM931.49,416.44v19.01h-19.01v19.01h38.02v-38.02h-19.01ZM931.49,416.44v19.01h-19.01v19.01h38.02v-38.02h-19.01ZM931.49,435.45h-19.01v19.01h38.02v-38.02h-19.01v19.01ZM931.49,416.44v19.01h-19.01v19.01h38.02v-38.02h-19.01ZM931.49,416.44v19.01h-19.01v19.01h38.02v-38.02h-19.01ZM931.49,416.44v19.01h-19.01v19.01h38.02v-38.02h-19.01ZM931.49,416.44v19.01h-19.01v19.01h38.02v-38.02h-19.01ZM931.49,416.44v19.01h-19.01v19.01h38.02v-38.02h-19.01ZM931.49,416.44v19.01h-19.01v19.01h38.02v-38.02h-19.01ZM931.49,416.44v19.01h-19.01v19.01h38.02v-38.02h-19.01ZM931.49,416.44v19.01h-19.01v19.01h38.02v-38.02h-19.01ZM931.49,416.44v19.01h-19.01v19.01h38.02v-38.02h-19.01ZM931.49,416.44v19.01h-19.01v19.01h38.02v-38.02h-19.01ZM931.49,416.44v19.01h-19.01v19.01h38.02v-38.02h-19.01ZM931.49,416.44v19.01h-19.01v19.01h38.02v-38.02h-19.01ZM931.49,416.44v19.01h-19.01v19.01h38.02v-38.02h-19.01Z"/>
  <polygon class="st1" points="1102.57 511.49 1102.57 587.52 1083.56 587.52 1083.56 644.55 1064.55 644.55 1064.55 682.57 988.51 682.57 988.51 644.55 1026.53 644.55 1026.53 625.54 1045.54 625.54 1045.54 606.53 1064.55 606.53 1064.55 530.5 1083.56 530.5 1083.56 511.49 1102.57 511.49"/>
  <polygon class="st0" points="855.45 359.41 855.45 378.42 779.41 378.42 779.41 397.43 760.4 397.43 760.4 416.44 741.39 416.44 741.39 359.41 855.45 359.41"/>
  <polygon class="st1" points="1520.79 720.59 1520.79 815.64 1501.78 815.64 1501.78 834.65 1292.67 834.65 1292.67 796.63 1349.7 796.63 1349.7 777.62 1387.72 777.62 1387.72 758.61 1463.76 758.61 1463.76 720.59 1482.77 720.59 1482.77 701.58 1501.78 701.58 1501.78 720.59 1520.79 720.59"/>
  <polygon class="st3" points="1064.55 492.48 1064.55 606.53 1045.54 606.53 1045.54 625.54 1026.53 625.54 1026.53 644.55 988.51 644.55 988.51 606.53 1026.53 606.53 1026.53 473.47 1045.54 473.47 1045.54 492.48 1064.55 492.48"/>
  <polygon class="st8" points="1083.56 397.43 1083.56 416.44 969.5 416.44 969.5 435.45 950.5 435.45 950.5 416.44 931.49 416.44 931.49 435.45 912.48 435.45 912.48 454.46 874.46 454.46 874.46 435.45 893.47 435.45 893.47 416.44 855.45 416.44 855.45 397.43 798.42 397.43 798.42 416.44 760.4 416.44 760.4 397.43 779.41 397.43 779.41 378.42 855.45 378.42 855.45 359.41 893.47 359.41 893.47 378.42 950.5 378.42 950.5 359.41 988.51 359.41 988.51 378.42 1064.55 378.42 1064.55 397.43 1083.56 397.43"/>
  <polygon class="st3" points="855.45 606.53 855.45 644.55 817.43 644.55 817.43 625.54 798.42 625.54 798.42 606.53 779.41 606.53 779.41 492.48 798.42 492.48 798.42 473.47 817.43 473.47 817.43 606.53 855.45 606.53"/>
  <polygon class="st6" points="874.46 454.46 874.46 492.48 817.43 492.48 817.43 454.46 798.42 454.46 798.42 435.45 836.44 435.45 836.44 454.46 874.46 454.46"/>
  <polygon class="st6" points="1026.53 435.45 1026.53 492.48 988.51 492.48 988.51 454.46 950.5 454.46 950.5 435.45 1026.53 435.45"/>
  <polygon class="st10" points="874.46 587.52 874.46 644.55 855.45 644.55 855.45 606.53 817.43 606.53 817.43 492.48 836.44 492.48 836.44 587.52 874.46 587.52"/>
  <polygon class="st10" points="1026.53 492.48 1026.53 606.53 988.51 606.53 988.51 644.55 969.5 644.55 969.5 587.52 1007.52 587.52 1007.52 492.48 1026.53 492.48"/>
  <polygon class="st11" points="893.47 568.51 893.47 644.55 874.46 644.55 874.46 587.52 836.44 587.52 836.44 492.48 855.45 492.48 855.45 568.51 893.47 568.51"/>
  <polygon class="st11" points="1007.52 492.48 1007.52 587.52 969.5 587.52 969.5 644.55 950.5 644.55 950.5 568.51 988.51 568.51 988.51 492.48 1007.52 492.48"/>
  <polygon class="st9" points="988.51 454.46 988.51 568.51 931.49 568.51 931.49 587.52 912.48 587.52 912.48 568.51 855.45 568.51 855.45 492.48 874.46 492.48 874.46 454.46 988.51 454.46"/>
  <polygon class="st2" points="646.34 245.35 646.34 264.36 456.24 264.36 456.24 302.38 399.21 302.38 399.21 321.39 361.19 321.39 361.19 226.34 627.33 226.34 627.33 245.35 646.34 245.35"/>
  <polygon class="st0" points="817.43 625.54 817.43 644.55 779.41 644.55 779.41 625.54 760.4 625.54 760.4 568.51 741.39 568.51 741.39 492.48 760.4 492.48 760.4 473.47 798.42 473.47 798.42 492.48 779.41 492.48 779.41 606.53 798.42 606.53 798.42 625.54 817.43 625.54"/>
</svg>