<?xml version="1.0" encoding="UTF-8"?>
<svg id="Layer_1" xmlns="http://www.w3.org/2000/svg" version="1.1" viewBox="0 0 1920 1080">
  <!-- Generator: Adobe Illustrator 29.6.1, SVG Export Plug-In . SVG Version: 2.1.1 Build 9)  -->
  <defs>
    <style>
      .st0 {
        fill: #45a75d;
      }

      .st1, .st2 {
        opacity: .05;
      }

      .st1, .st3 {
        fill: #fff;
      }

      .st4 {
        fill: #da0001;
      }

      .st5 {
        fill: none;
      }
    </style>
  </defs>
  <rect class="st3" x="357.63" y="226.33" width="1201.18" height="627.33"/>
  <g>
    <path class="st5" d="M893.47,549.5v19.01h19.01v-19.01h-19.01ZM893.47,492.48v19.01h19.01v-19.01h-19.01ZM874.46,511.49v38.01h19.01v-38.01h-19.01ZM950.5,568.51v19.01h19v-19.01h-19ZM893.47,549.5v19.01h19.01v-19.01h-19.01ZM893.47,492.48v19.01h19.01v-19.01h-19.01ZM874.46,511.49v38.01h19.01v-38.01h-19.01ZM950.5,568.51v19.01h19v-19.01h-19ZM893.47,549.5v19.01h19.01v-19.01h-19.01ZM893.47,492.48v19.01h19.01v-19.01h-19.01ZM874.46,511.49v38.01h19.01v-38.01h-19.01ZM1007.52,549.5v19.01h19.01v-19.01h-19.01ZM1007.52,492.48v19.01h19.01v-19.01h-19.01ZM1026.53,511.49v38.01h19.01v-38.01h-19.01ZM874.46,511.49v38.01h19.01v-38.01h-19.01ZM893.47,492.48v19.01h19.01v-19.01h-19.01ZM893.47,549.5v19.01h19.01v-19.01h-19.01ZM950.5,568.51v19.01h19v-19.01h-19ZM893.47,549.5v19.01h19.01v-19.01h-19.01ZM893.47,492.48v19.01h19.01v-19.01h-19.01ZM874.46,511.49v38.01h19.01v-38.01h-19.01ZM1007.52,549.5v19.01h19.01v-19.01h-19.01ZM1007.52,492.48v19.01h19.01v-19.01h-19.01ZM1026.53,511.49v38.01h19.01v-38.01h-19.01ZM874.46,511.49v38.01h19.01v-38.01h-19.01ZM893.47,492.48v19.01h19.01v-19.01h-19.01ZM893.47,549.5v19.01h19.01v-19.01h-19.01ZM1007.52,492.48v19.01h19.01v-19.01h-19.01ZM1026.53,511.49v38.01h19.01v-38.01h-19.01ZM950.5,568.51v19.01h19v-19.01h-19ZM893.47,549.5v19.01h19.01v-19.01h-19.01ZM893.47,492.48v19.01h19.01v-19.01h-19.01ZM874.46,511.49v38.01h19.01v-38.01h-19.01ZM1026.53,511.49v38.01h19.01v-38.01h-19.01ZM1007.52,549.5v19.01h19.01v-19.01h-19.01ZM1007.52,492.48v19.01h19.01v-19.01h-19.01ZM874.46,511.49v38.01h19.01v-38.01h-19.01ZM893.47,492.48v19.01h19.01v-19.01h-19.01ZM893.47,549.5v19.01h19.01v-19.01h-19.01ZM1007.52,492.48v19.01h19.01v-19.01h-19.01ZM1007.52,549.5v19.01h19.01v-19.01h-19.01ZM1026.53,511.49v38.01h19.01v-38.01h-19.01ZM1026.53,511.49v38.01h19.01v-38.01h-19.01ZM1007.52,549.5v19.01h19.01v-19.01h-19.01ZM1007.52,492.48v19.01h19.01v-19.01h-19.01ZM893.47,549.5v19.01h19.01v-19.01h-19.01ZM893.47,492.48v19.01h19.01v-19.01h-19.01ZM874.46,511.49v38.01h19.01v-38.01h-19.01ZM874.46,511.49v38.01h19.01v-38.01h-19.01ZM893.47,492.48v19.01h19.01v-19.01h-19.01ZM893.47,549.5v19.01h19.01v-19.01h-19.01ZM1007.52,492.48v19.01h19.01v-19.01h-19.01ZM1007.52,549.5v19.01h19.01v-19.01h-19.01ZM1026.53,511.49v38.01h19.01v-38.01h-19.01ZM1026.53,549.5h19.01v-38.01h-19.01v38.01ZM1007.52,568.51h19.01v-19.01h-19.01v19.01ZM1026.53,511.49v-19.01h-19.01v19.01h19.01ZM912.48,568.51v-19.01h-19.01v19.01h19.01ZM893.47,511.49h19.01v-19.01h-19.01v19.01ZM874.46,549.5h19.01v-38.01h-19.01v38.01ZM912.48,568.51v19.01h-38.02v-19.01h-19.01v-76.03h19.01v-19.01h38.02v19.01h19.01v19.01h-19.01v38.01h19.01v19.01h-19.01ZM988.51,473.47h-57.02v-19.01h57.02v19.01ZM950.5,492.48h19v76.03h-19v-76.03ZM988.51,568.51v-19.01h19.01v-38.01h-19.01v-19.01h19.01v-19.01h38.02v19.01h19.01v76.03h-19.01v19.01h-38.02v-19.01h-19.01ZM912.48,625.54v-19.01h38.02v-19.01h19v19.01h38.02v19.01h-95.04ZM1026.53,549.5h19.01v-38.01h-19.01v38.01ZM1026.53,549.5h-19.01v19.01h19.01v-19.01ZM1026.53,492.48h-19.01v19.01h19.01v-19.01ZM893.47,549.5v19.01h19.01v-19.01h-19.01ZM893.47,511.49h19.01v-19.01h-19.01v19.01ZM893.47,511.49h-19.01v38.01h19.01v-38.01ZM874.46,511.49v38.01h19.01v-38.01h-19.01ZM893.47,492.48v19.01h19.01v-19.01h-19.01ZM893.47,549.5v19.01h19.01v-19.01h-19.01ZM1007.52,492.48v19.01h19.01v-19.01h-19.01ZM1007.52,549.5v19.01h19.01v-19.01h-19.01ZM1026.53,511.49v38.01h19.01v-38.01h-19.01ZM950.5,568.51v19.01h19v-19.01h-19ZM1026.53,511.49v38.01h19.01v-38.01h-19.01ZM1007.52,549.5v19.01h19.01v-19.01h-19.01ZM1007.52,492.48v19.01h19.01v-19.01h-19.01ZM893.47,549.5v19.01h19.01v-19.01h-19.01ZM893.47,492.48v19.01h19.01v-19.01h-19.01ZM874.46,511.49v38.01h19.01v-38.01h-19.01ZM874.46,511.49v38.01h19.01v-38.01h-19.01ZM893.47,492.48v19.01h19.01v-19.01h-19.01ZM893.47,549.5v19.01h19.01v-19.01h-19.01ZM1007.52,492.48v19.01h19.01v-19.01h-19.01ZM1007.52,549.5v19.01h19.01v-19.01h-19.01ZM1026.53,511.49v38.01h19.01v-38.01h-19.01ZM1026.53,549.5h19.01v-38.01h-19.01v38.01ZM1007.52,568.51h19.01v-19.01h-19.01v19.01ZM1026.53,511.49v-19.01h-19.01v19.01h19.01ZM912.48,568.51v-19.01h-19.01v19.01h19.01ZM893.47,511.49h19.01v-19.01h-19.01v19.01ZM874.46,549.5h19.01v-38.01h-19.01v38.01ZM912.48,568.51v19.01h-38.02v-19.01h-19.01v-76.03h19.01v-19.01h38.02v19.01h19.01v19.01h-19.01v38.01h19.01v19.01h-19.01ZM988.51,473.47h-57.02v-19.01h57.02v19.01ZM950.5,492.48h19v76.03h-19v-76.03ZM988.51,568.51v-19.01h19.01v-38.01h-19.01v-19.01h19.01v-19.01h38.02v19.01h19.01v76.03h-19.01v19.01h-38.02v-19.01h-19.01ZM912.48,625.54v-19.01h38.02v-19.01h19v19.01h38.02v19.01h-95.04ZM1026.53,549.5h19.01v-38.01h-19.01v38.01ZM1026.53,549.5h-19.01v19.01h19.01v-19.01ZM1026.53,492.48h-19.01v19.01h19.01v-19.01ZM893.47,549.5v19.01h19.01v-19.01h-19.01ZM893.47,511.49h19.01v-19.01h-19.01v19.01ZM893.47,511.49h-19.01v38.01h19.01v-38.01ZM1558.81,853.66H361.19v-171.09h38.02v-38.02h19.01v38.02h38.02v-38.02h19.01v38.02h38.02v-38.02h19.01v38.02h38.02v-38.02h19.01v38.02h38.02v-38.02h19.01v38.02h38.02v-38.02h19.01v38.02h38.02v-38.02h19.01v38.02h38.02v-38.02h19.01v38.02h38.02v-38.02h19.01v38.02h38.02v-38.02h19.01v38.02h38.01v-38.02h19.01v38.02h38.02v-38.02h19.01v38.02h38.02v-38.02h19.01v38.02h38.02v-38.02h19.01v38.02h38.02v-38.02h19.01v38.02h38.02v-38.02h19.01v38.02h38.02v-38.02h19.01v38.02h38.02v-38.02h19.01v38.02h38.02v-38.02h19.01v38.02h38.02v-38.02h19.01v38.02h38.02v-38.02h19.01v209.11ZM912.48,625.54v-19.01h38.02v-19.01h19v19.01h38.02v19.01h-95.04ZM912.48,568.51v19.01h-38.02v-19.01h-19.01v-76.03h19.01v-19.01h38.02v19.01h19.01v19.01h-19.01v38.01h19.01v19.01h-19.01ZM988.51,473.47h-57.02v-19.01h57.02v19.01ZM950.5,492.48h19v76.03h-19v-76.03ZM988.51,568.51v-19.01h19.01v-38.01h-19.01v-19.01h19.01v-19.01h38.02v19.01h19.01v76.03h-19.01v19.01h-38.02v-19.01h-19.01ZM1026.53,549.5h19.01v-38.01h-19.01v38.01ZM1026.53,549.5h-19.01v19.01h19.01v-19.01ZM1026.53,492.48h-19.01v19.01h19.01v-19.01ZM893.47,549.5v19.01h19.01v-19.01h-19.01ZM893.47,511.49h19.01v-19.01h-19.01v19.01ZM893.47,511.49h-19.01v38.01h19.01v-38.01ZM874.46,511.49v38.01h19.01v-38.01h-19.01ZM893.47,492.48v19.01h19.01v-19.01h-19.01ZM893.47,549.5v19.01h19.01v-19.01h-19.01ZM1007.52,492.48v19.01h19.01v-19.01h-19.01ZM1007.52,549.5v19.01h19.01v-19.01h-19.01ZM1026.53,511.49v38.01h19.01v-38.01h-19.01ZM1026.53,549.5h19.01v-38.01h-19.01v38.01ZM1007.52,568.51h19.01v-19.01h-19.01v19.01ZM1026.53,511.49v-19.01h-19.01v19.01h19.01ZM912.48,568.51v-19.01h-19.01v19.01h19.01ZM893.47,511.49h19.01v-19.01h-19.01v19.01ZM874.46,549.5h19.01v-38.01h-19.01v38.01ZM912.48,568.51v19.01h-38.02v-19.01h-19.01v-76.03h19.01v-19.01h38.02v19.01h19.01v19.01h-19.01v38.01h19.01v19.01h-19.01ZM988.51,473.47h-57.02v-19.01h57.02v19.01ZM950.5,492.48h19v76.03h-19v-76.03ZM988.51,568.51v-19.01h19.01v-38.01h-19.01v-19.01h19.01v-19.01h38.02v19.01h19.01v76.03h-19.01v19.01h-38.02v-19.01h-19.01ZM912.48,625.54v-19.01h38.02v-19.01h19v19.01h38.02v19.01h-95.04ZM1026.53,549.5h19.01v-38.01h-19.01v38.01ZM1026.53,549.5h-19.01v19.01h19.01v-19.01ZM1026.53,492.48h-19.01v19.01h19.01v-19.01ZM893.47,549.5v19.01h19.01v-19.01h-19.01ZM893.47,511.49h19.01v-19.01h-19.01v19.01ZM893.47,511.49h-19.01v38.01h19.01v-38.01ZM950.5,568.51v19.01h19v-19.01h-19ZM874.46,511.49v38.01h19.01v-38.01h-19.01ZM893.47,492.48v19.01h19.01v-19.01h-19.01ZM893.47,549.5v19.01h19.01v-19.01h-19.01ZM1007.52,492.48v19.01h19.01v-19.01h-19.01ZM1007.52,549.5v19.01h19.01v-19.01h-19.01ZM1026.53,511.49v38.01h19.01v-38.01h-19.01ZM1026.53,511.49v38.01h19.01v-38.01h-19.01ZM1007.52,549.5v19.01h19.01v-19.01h-19.01ZM1007.52,492.48v19.01h19.01v-19.01h-19.01ZM893.47,549.5v19.01h19.01v-19.01h-19.01ZM893.47,492.48v19.01h19.01v-19.01h-19.01ZM874.46,511.49v38.01h19.01v-38.01h-19.01ZM1007.52,492.48v19.01h19.01v-19.01h-19.01ZM1007.52,549.5v19.01h19.01v-19.01h-19.01ZM1026.53,511.49v38.01h19.01v-38.01h-19.01ZM874.46,511.49v38.01h19.01v-38.01h-19.01ZM893.47,492.48v19.01h19.01v-19.01h-19.01ZM893.47,549.5v19.01h19.01v-19.01h-19.01ZM950.5,568.51v19.01h19v-19.01h-19ZM1026.53,511.49v38.01h19.01v-38.01h-19.01ZM1007.52,549.5v19.01h19.01v-19.01h-19.01ZM1007.52,492.48v19.01h19.01v-19.01h-19.01ZM893.47,549.5v19.01h19.01v-19.01h-19.01ZM893.47,492.48v19.01h19.01v-19.01h-19.01ZM874.46,511.49v38.01h19.01v-38.01h-19.01ZM1007.52,549.5v19.01h19.01v-19.01h-19.01ZM1007.52,492.48v19.01h19.01v-19.01h-19.01ZM1026.53,511.49v38.01h19.01v-38.01h-19.01ZM874.46,511.49v38.01h19.01v-38.01h-19.01ZM893.47,492.48v19.01h19.01v-19.01h-19.01ZM893.47,549.5v19.01h19.01v-19.01h-19.01ZM950.5,568.51v19.01h19v-19.01h-19ZM893.47,549.5v19.01h19.01v-19.01h-19.01ZM893.47,492.48v19.01h19.01v-19.01h-19.01ZM874.46,511.49v38.01h19.01v-38.01h-19.01ZM1007.52,549.5v19.01h19.01v-19.01h-19.01ZM1007.52,492.48v19.01h19.01v-19.01h-19.01ZM1026.53,511.49v38.01h19.01v-38.01h-19.01ZM874.46,511.49v38.01h19.01v-38.01h-19.01ZM893.47,492.48v19.01h19.01v-19.01h-19.01ZM893.47,549.5v19.01h19.01v-19.01h-19.01ZM950.5,568.51v19.01h19v-19.01h-19ZM893.47,492.48v19.01h19.01v-19.01h-19.01ZM874.46,511.49v38.01h19.01v-38.01h-19.01ZM1007.52,549.5v19.01h19.01v-19.01h-19.01ZM1007.52,492.48v19.01h19.01v-19.01h-19.01ZM1026.53,511.49v38.01h19.01v-38.01h-19.01ZM893.47,549.5v19.01h19.01v-19.01h-19.01ZM893.47,492.48v19.01h19.01v-19.01h-19.01ZM874.46,511.49v38.01h19.01v-38.01h-19.01ZM950.5,568.51v19.01h19v-19.01h-19ZM893.47,549.5v19.01h19.01v-19.01h-19.01ZM893.47,492.48v19.01h19.01v-19.01h-19.01ZM874.46,511.49v38.01h19.01v-38.01h-19.01ZM893.47,549.5v19.01h19.01v-19.01h-19.01ZM893.47,492.48v19.01h19.01v-19.01h-19.01ZM874.46,511.49v38.01h19.01v-38.01h-19.01Z"/>
    <rect class="st4" x="931.49" y="454.46" width="57.02" height="19.01"/>
    <polygon class="st4" points="874.46 549.5 893.47 549.5 893.47 568.51 912.48 568.51 912.48 587.52 874.46 587.52 874.46 568.51 855.45 568.51 855.45 492.48 874.46 492.48 874.46 473.47 912.48 473.47 912.48 492.48 893.47 492.48 893.47 511.49 874.46 511.49 874.46 549.5"/>
    <rect class="st4" x="912.48" y="492.48" width="19.01" height="19.01"/>
    <rect class="st4" x="988.51" y="492.48" width="19.01" height="19.01"/>
    <rect class="st4" x="950.5" y="492.48" width="19" height="76.03"/>
    <polygon class="st4" points="1007.52 606.53 1007.52 625.54 912.48 625.54 912.48 606.53 950.5 606.53 950.5 587.52 969.5 587.52 969.5 606.53 1007.52 606.53"/>
    <path class="st5" d="M1045.54,644.55"/>
    <path class="st5" d="M1083.56,644.55"/>
    <path class="st5" d="M874.46,644.55"/>
    <path class="st5" d="M912.48,644.55"/>
    <path class="st5" d="M627.33,644.55"/>
    <path class="st5" d="M589.31,644.55"/>
    <path class="st5" d="M646.34,644.55"/>
    <path class="st5" d="M741.39,644.55"/>
    <path class="st5" d="M703.37,644.55"/>
    <path class="st5" d="M798.42,644.55"/>
    <path class="st5" d="M760.4,644.55"/>
    <path class="st5" d="M855.45,644.55"/>
    <path class="st5" d="M817.43,644.55"/>
    <path class="st5" d="M1045.54,663.56"/>
    <path class="st5" d="M1083.56,663.56"/>
    <path class="st5" d="M874.46,663.56"/>
    <path class="st5" d="M912.48,663.56"/>
    <path class="st5" d="M627.33,663.56"/>
    <path class="st5" d="M589.31,663.56"/>
    <path class="st5" d="M646.34,663.56"/>
    <path class="st5" d="M741.39,663.56"/>
    <path class="st5" d="M703.37,663.56"/>
    <path class="st5" d="M798.42,663.56"/>
    <path class="st5" d="M760.4,663.56"/>
    <path class="st5" d="M855.45,663.56"/>
    <path class="st5" d="M817.43,663.56"/>
    <rect class="st4" x="988.51" y="549.5" width="19.01" height="19.01"/>
    <polygon class="st4" points="1064.55 492.48 1064.55 568.51 1045.54 568.51 1045.54 587.52 1007.52 587.52 1007.52 568.51 1026.53 568.51 1026.53 549.5 1045.54 549.5 1045.54 511.49 1026.53 511.49 1026.53 492.48 1007.52 492.48 1007.52 473.47 1045.54 473.47 1045.54 492.48 1064.55 492.48"/>
    <rect class="st4" x="1007.52" y="511.49" width="19.01" height="38.01"/>
    <path class="st5" d="M1007.52,625.54"/>
    <path class="st5" d="M988.51,625.54"/>
    <path class="st5" d="M988.51,644.55"/>
    <line class="st5" x1="969.5" y1="587.52" x2="969.5" y2="568.51"/>
    <path class="st5" d="M969.5,625.54"/>
    <path class="st5" d="M969.5,644.55"/>
    <line class="st5" x1="950.5" y1="587.52" x2="950.5" y2="568.51"/>
    <path class="st5" d="M950.5,625.54"/>
    <path class="st5" d="M931.49,625.54"/>
    <path class="st5" d="M931.49,644.55"/>
    <path class="st5" d="M912.48,625.54"/>
    <path class="st5" d="M912.48,644.55"/>
    <rect class="st4" x="893.47" y="511.49" width="19.01" height="38.01"/>
    <rect class="st4" x="912.48" y="549.5" width="19.01" height="19.01"/>
  </g>
  <g>
    <polygon class="st4" points="357.3 684.71 357.3 852.56 1556.7 852.56 1556.7 715.23 1518.62 715.23 1518.62 684.71 1499.58 684.71 1499.58 715.23 1461.5 715.23 1461.5 684.71 1442.47 684.71 1442.47 715.23 1404.39 715.23 1404.39 684.71 1385.35 684.71 1385.35 715.23 1347.28 715.23 1347.28 684.71 1328.24 684.71 1328.24 715.23 1290.16 715.23 1290.16 684.71 1271.12 684.71 1271.12 715.23 1233.05 715.23 1233.05 684.71 1214.01 684.71 1214.01 715.23 1175.93 715.23 1175.93 684.71 1156.89 684.71 1156.89 715.23 1118.82 715.23 1118.82 684.71 1099.78 684.71 1099.78 715.23 1061.7 715.23 1061.7 684.71 1042.66 684.71 1042.66 715.23 1004.59 715.23 1004.59 684.71 985.55 684.71 985.55 715.23 947.48 715.23 947.48 684.71 928.44 684.71 928.44 715.23 890.37 715.23 890.37 684.71 871.33 684.71 871.33 715.23 833.25 715.23 833.25 684.71 814.21 684.71 814.21 715.23 776.14 715.23 776.14 684.71 757.1 684.71 757.1 715.23 719.02 715.23 719.02 684.71 699.99 684.71 699.99 715.23 661.91 715.23 661.91 684.71 642.87 684.71 642.87 715.23 604.79 715.23 604.79 684.71 585.76 684.71 585.76 715.23 547.68 715.23 547.68 684.71 528.64 684.71 528.64 715.23 490.57 715.23 490.57 684.71 471.53 684.71 471.53 715.23 433.45 715.23 433.45 684.71 414.41 684.71 414.41 715.23 376.34 715.23 376.34 684.71 357.3 684.71"/>
    <rect class="st4" x="357.3" y="691.54" width="1201.18" height="14.04" transform="translate(1915.78 1397.12) rotate(-180)"/>
  </g>
  <g>
    <polygon class="st0" points="1560.59 392.96 1560.59 225.1 361.19 225.1 361.19 362.44 399.27 362.44 399.27 392.96 418.31 392.96 418.31 362.44 456.38 362.44 456.38 392.96 475.42 392.96 475.42 362.44 513.5 362.44 513.5 392.96 532.54 392.96 532.54 362.44 570.61 362.44 570.61 392.96 589.65 392.96 589.65 362.44 627.73 362.44 627.73 392.96 646.77 392.96 646.77 362.44 684.84 362.44 684.84 392.96 703.88 392.96 703.88 362.44 741.96 362.44 741.96 392.96 761 392.96 761 362.44 799.07 362.44 799.07 392.96 818.11 392.96 818.11 362.44 856.19 362.44 856.19 392.96 875.22 392.96 875.22 362.44 913.3 362.44 913.3 392.96 932.34 392.96 932.34 362.44 970.41 362.44 970.41 392.96 989.44 392.96 989.44 362.44 1027.52 362.44 1027.52 392.96 1046.56 392.96 1046.56 362.44 1084.64 362.44 1084.64 392.96 1103.67 392.96 1103.67 362.44 1141.75 362.44 1141.75 392.96 1160.79 392.96 1160.79 362.44 1198.86 362.44 1198.86 392.96 1217.9 392.96 1217.9 362.44 1255.98 362.44 1255.98 392.96 1275.02 392.96 1275.02 362.44 1313.09 362.44 1313.09 392.96 1332.13 392.96 1332.13 362.44 1370.21 362.44 1370.21 392.96 1389.25 392.96 1389.25 362.44 1427.32 362.44 1427.32 392.96 1446.36 392.96 1446.36 362.44 1484.44 362.44 1484.44 392.96 1503.48 392.96 1503.48 362.44 1541.55 362.44 1541.55 392.96 1560.59 392.96"/>
    <rect class="st0" x="359.41" y="372.08" width="1201.18" height="14.04"/>
  </g>
  <polygon class="st1" points="964.78 427.84 964.78 446.85 945.78 446.85 945.78 465.86 926.77 465.86 926.77 484.87 888.75 484.87 888.75 541.89 831.72 541.89 831.72 465.86 869.74 465.86 869.74 446.85 926.77 446.85 926.77 427.84 964.78 427.84"/>
  <polygon class="st2" points="1535.08 712.98 1535.08 827.04 1516.07 827.04 1516.07 844.95 1325.97 844.95 1325.97 827.04 1344.98 827.04 1344.98 808.03 1383 808.03 1383 789.02 1440.03 789.02 1440.03 770.01 1459.04 770.01 1459.04 731.99 1497.06 731.99 1497.06 712.98 1535.08 712.98"/>
  <polygon class="st1" points="1535.08 237.74 1535.08 332.79 1478.05 332.79 1478.05 313.78 1440.03 313.78 1440.03 294.77 1421.02 294.77 1421.02 275.76 1383 275.76 1383 256.75 1344.98 256.75 1344.98 237.74 1535.08 237.74"/>
  <polygon class="st2" points="1078.84 484.87 1078.84 560.9 1059.83 560.9 1059.83 598.92 1040.82 598.92 1040.82 636.94 907.76 636.94 907.76 617.93 983.79 617.93 983.79 598.92 964.78 598.92 964.78 579.91 983.79 579.91 983.79 560.9 1002.8 560.9 1002.8 541.89 1021.81 541.89 1021.81 522.89 1040.82 522.89 1040.82 541.89 1059.83 541.89 1059.83 484.87 1078.84 484.87"/>
  <polygon class="st1" points="698.65 237.74 698.65 256.75 565.58 256.75 565.58 275.76 546.57 275.76 546.57 294.77 489.54 294.77 489.54 313.78 375.48 313.78 375.48 237.74 698.65 237.74"/>
  <polygon class="st2" points="584.59 799.02 584.59 837.04 375.48 837.04 375.48 722.98 394.49 722.98 394.49 741.99 489.54 741.99 489.54 761 527.56 761 527.56 780.01 565.58 780.01 565.58 799.02 584.59 799.02"/>
</svg>