<?xml version="1.0" encoding="UTF-8"?>
<svg id="Layer_1" xmlns="http://www.w3.org/2000/svg" version="1.1" viewBox="0 0 1920 1080">
  <!-- Generator: Adobe Illustrator 29.6.1, SVG Export Plug-In . SVG Version: 2.1.1 Build 9)  -->
  <defs>
    <style>
      .st0 {
        fill: #bc002d;
      }

      .st1, .st2 {
        opacity: .05;
      }

      .st2 {
        fill: #adadad;
      }

      .st3 {
        fill: #f2f2f3;
      }
    </style>
  </defs>
  <g>
    <rect class="st3" x="378.76" y="245.28" width="1143.42" height="570.29"/>
    <polygon class="st0" points="1121.55 473.41 1121.55 587.45 1102.54 587.45 1102.54 625.48 1083.53 625.48 1083.53 644.49 1045.51 644.49 1045.51 682.51 1007.49 682.51 1007.49 701.51 893.44 701.51 893.44 682.51 855.42 682.51 855.42 644.49 817.4 644.49 817.4 625.48 798.39 625.48 798.39 587.45 779.38 587.45 779.38 473.41 798.39 473.41 798.39 435.39 817.4 435.39 817.4 416.38 855.42 416.38 855.42 378.36 893.44 378.36 893.44 359.35 1007.49 359.35 1007.49 378.36 1045.51 378.36 1045.51 397.37 1083.53 397.37 1083.53 435.39 1102.54 435.39 1102.54 473.41 1121.55 473.41"/>
  </g>
  <g>
    <polygon class="st1" points="892.31 394.43 892.31 413.44 854.29 413.44 854.29 432.45 835.28 432.45 835.28 470.47 816.27 470.47 816.27 489.48 778.25 489.48 778.25 470.47 797.26 470.47 797.26 432.45 816.27 432.45 816.27 413.44 835.28 413.44 835.28 375.42 873.3 375.42 873.3 394.43 892.31 394.43"/>
    <polygon class="st2" points="1101.41 413.44 1101.41 451.46 1063.39 451.46 1063.39 432.45 1044.38 432.45 1044.38 394.43 1006.36 394.43 1006.36 375.42 968.34 375.42 968.34 356.41 1025.37 356.41 1025.37 375.42 1063.39 375.42 1063.39 394.43 1082.4 394.43 1082.4 413.44 1101.41 413.44"/>
    <polygon class="st1" points="1500.62 736.6 1500.62 793.63 1386.56 793.63 1386.56 774.62 1443.59 774.62 1443.59 755.61 1481.61 755.61 1481.61 736.6 1500.62 736.6"/>
    <polygon class="st1" points="1481.61 261.36 1481.61 299.38 1462.6 299.38 1462.6 318.39 1443.59 318.39 1443.59 299.38 1424.58 299.38 1424.58 280.37 1367.55 280.37 1367.55 261.36 1481.61 261.36"/>
    <polygon class="st1" points="1082.4 622.54 1082.4 641.55 1044.38 641.55 1044.38 679.57 1006.36 679.57 1006.36 698.58 987.35 698.58 987.35 641.55 1025.37 641.55 1025.37 622.54 1082.4 622.54"/>
    <polygon class="st1" points="531.12 261.36 531.12 299.38 512.11 299.38 512.11 318.39 436.07 318.39 436.07 337.4 398.05 337.4 398.05 261.36 531.12 261.36"/>
    <polygon class="st1" points="531.12 774.62 531.12 793.63 474.09 793.63 474.09 812.64 417.06 812.64 417.06 793.63 398.05 793.63 398.05 736.6 417.06 736.6 417.06 774.62 531.12 774.62"/>
    <polygon class="st2" points="512.11 318.39 512.11 337.4 455.08 337.4 455.08 356.41 398.05 356.41 398.05 337.4 436.07 337.4 436.07 318.39 512.11 318.39"/>
    <polygon class="st2" points="854.29 622.54 854.29 660.56 835.28 660.56 835.28 641.55 797.26 641.55 797.26 584.52 778.25 584.52 778.25 565.51 816.27 565.51 816.27 584.52 835.28 584.52 835.28 622.54 854.29 622.54"/>
  </g>
</svg>