<?xml version="1.0" encoding="UTF-8"?>
<svg id="Layer_1" xmlns="http://www.w3.org/2000/svg" version="1.1" viewBox="0 0 1920 1080">
  <!-- Generator: Adobe Illustrator 29.6.1, SVG Export Plug-In . SVG Version: 2.1.1 Build 9)  -->
  <defs>
    <style>
      .st0, .st1 {
        opacity: .05;
      }

      .st0, .st2 {
        fill: #fff;
      }

      .st3 {
        fill: none;
      }

      .st4 {
        fill: #007a3d;
      }

      .st5 {
        fill: #ce1126;
      }
    </style>
  </defs>
  <g>
    <path class="st3" d="M361.19,226.34v608.31h1178.61V226.34H361.19ZM494.26,511.49h19.01v-19.01h19.01v-19.01h19.01v-19.01h19.01v19.01h19.01v19.01h19.01v19.01h19.01v19.01h-19.01v19h-19.01v19.01h-19.01v19.01h-19.01v-19.01h-19.01v-19.01h-19.01v-19h-19.01v-19.01Z"/>
    <path class="st5" d="M893.47,511.49v-19.01h-38.02v-19.01h-38.02v-19.01h-38.02v-19.01h-38.02v-19.01h-38.02v-19.01h-38.02v-19.01h-38.02v-19.01h-38.02v-19.01h-19.01v-19.01h-38.02v-19.01h-38.02v-19.01h-38.02v-19.01h-38.02v-19.01h-38.02v-19.01h-19.01v608.31h19.01v-19.01h38.02v-19.01h38.02v-19.01h38.02v-19.01h38.02v-19.01h38.02v-19.01h19.01v-19.01h38.02v-19.01h38.02v-19.01h38.02v-19.01h38.02v-19.01h38.02v-19.01h38.02v-19.01h38.02v-19.01h38.02v-19.01h38.02v-38.01h-38.02ZM570.3,568.51v19.01h-19.01v-19.01h-19.01v-19.01h-19.01v-19h-19.01v-19.01h19.01v-19.01h19.01v-19.01h19.01v-19.01h19.01v19.01h19.01v19.01h19.01v19.01h19.01v19.01h-19.01v19h-19.01v19.01h-19.01Z"/>
    <polygon points="1539.8 226.34 1539.8 435.45 741.39 435.45 741.39 416.44 703.37 416.44 703.37 397.43 665.35 397.43 665.35 378.42 627.33 378.42 627.33 359.41 589.31 359.41 589.31 340.4 570.3 340.4 570.3 321.39 532.28 321.39 532.28 302.38 494.26 302.38 494.26 283.37 456.24 283.37 456.24 264.36 418.22 264.36 418.22 245.35 380.2 245.35 380.2 226.34 1539.8 226.34"/>
    <polygon class="st4" points="1539.8 625.54 1539.8 834.65 380.2 834.65 380.2 815.64 418.22 815.64 418.22 796.63 456.24 796.63 456.24 777.62 494.26 777.62 494.26 758.61 532.28 758.61 532.28 739.6 570.3 739.6 570.3 720.59 589.31 720.59 589.31 701.58 627.33 701.58 627.33 682.57 665.35 682.57 665.35 663.56 703.37 663.56 703.37 644.55 741.39 644.55 741.39 625.54 1539.8 625.54"/>
    <polygon class="st2" points="1539.8 435.45 1539.8 625.54 779.41 625.54 779.41 606.53 817.43 606.53 817.43 587.52 855.45 587.52 855.45 568.51 893.47 568.51 893.47 549.5 931.49 549.5 931.49 511.49 893.47 511.49 893.47 492.48 855.45 492.48 855.45 473.47 817.43 473.47 817.43 454.46 779.41 454.46 779.41 435.45 1539.8 435.45"/>
  </g>
  <g>
    <path class="st3" d="M361.19,815.64h19.01v-19.01h57.03v-19.01h19.01v-19.01h38.02v-19.01h57.03v-19.01h38.02v-19.01h19.01v-19.01h38.02v-19.01h38.02v-19.01h38.02v-19.01h38.02v-19.01h38.02v-19.01h38.02v19.01h-19.01v19.01h-38.02v19.01h-38.02v19.01h-38.02v19.01h-38.02v19.01h-38.02v19.01h-19.01v19.01h-38.02v19.01h-57.03v19.01h-38.02v19.01h-19.01v19.01h-38.02v19.01h-57.03v-19.01ZM361.19,226.34h38.02v19.01h38.02v19.01h38.02v19.01h38.02v19.01h57.03v19.01h38.02v19.01h19.01v19.01h38.02v19.01h19.01v19.01h38.02v19.01h57.03v38.02h-19.01v-19.01h-57.03v-19.01h-38.02v-19.01h-19.01v-19.01h-57.03v-19.01h-19.01v-19.01h-19.01v-19.01h-57.03v-19.01h-38.02v-19.01h-38.02v-19.01h-38.02v-19.01h-19.01v-19.01ZM1539.8,834.65h-133.07v-19.01h57.03v-19.01h19.01v-38.02h19.01v-19.01h38.02v95.05ZM1482.77,283.37h-19.01v19.01h-38.02v19.01h-57.03v-38.02h-19.01v-19.01h-114.06v-38.02h247.13v57.03ZM532.28,606.53v-57.03h-19.01v-19h-19.01v-19.01h19.01v-19.01h19.01v-19.01h19.01v-19.01h19.01v19.01h19.01v19.01h19.01v19.01h19.01v57.02h-19.01v19.01h-19.01v19.01h-57.03Z"/>
    <polygon class="st1" points="1539.8 739.6 1539.8 834.65 1406.73 834.65 1406.73 815.64 1463.76 815.64 1463.76 796.63 1482.77 796.63 1482.77 758.61 1501.78 758.61 1501.78 739.6 1539.8 739.6"/>
    <polygon class="st0" points="1482.77 226.34 1482.77 283.37 1463.76 283.37 1463.76 302.38 1425.74 302.38 1425.74 321.39 1368.71 321.39 1368.71 283.37 1349.7 283.37 1349.7 264.36 1235.64 264.36 1235.64 226.34 1482.77 226.34"/>
    <polygon class="st2" points="627.33 511.49 627.33 530.5 608.32 530.5 608.32 549.5 589.31 549.5 589.31 568.51 570.3 568.51 570.3 587.52 551.29 587.52 551.29 568.51 532.28 568.51 532.28 549.5 513.27 549.5 513.27 530.5 494.26 530.5 494.26 511.49 513.27 511.49 513.27 492.48 532.28 492.48 532.28 473.47 551.29 473.47 551.29 454.46 570.3 454.46 570.3 473.47 589.31 473.47 589.31 492.48 608.32 492.48 608.32 511.49 627.33 511.49"/>
    <polygon class="st0" points="779.41 416.44 779.41 454.46 760.4 454.46 760.4 435.45 703.37 435.45 703.37 416.44 665.35 416.44 665.35 397.43 646.34 397.43 646.34 378.42 589.31 378.42 589.31 359.41 570.3 359.41 570.3 340.4 551.29 340.4 551.29 321.39 494.26 321.39 494.26 302.38 456.24 302.38 456.24 283.37 418.22 283.37 418.22 264.36 380.2 264.36 380.2 245.35 361.19 245.35 361.19 226.34 399.21 226.34 399.21 245.35 437.23 245.35 437.23 264.36 475.25 264.36 475.25 283.37 513.27 283.37 513.27 302.38 570.3 302.38 570.3 321.39 608.32 321.39 608.32 340.4 627.33 340.4 627.33 359.41 665.35 359.41 665.35 378.42 684.36 378.42 684.36 397.43 722.38 397.43 722.38 416.44 779.41 416.44"/>
    <polygon class="st1" points="627.33 530.5 627.33 568.51 608.32 568.51 608.32 587.52 589.31 587.52 589.31 606.53 532.28 606.53 532.28 568.51 551.29 568.51 551.29 587.52 570.3 587.52 570.3 568.51 589.31 568.51 589.31 549.5 608.32 549.5 608.32 530.5 627.33 530.5"/>
    <polygon class="st1" points="836.44 587.52 836.44 606.53 817.43 606.53 817.43 625.54 779.41 625.54 779.41 644.55 741.39 644.55 741.39 663.56 703.37 663.56 703.37 682.57 665.35 682.57 665.35 701.58 627.33 701.58 627.33 720.59 608.32 720.59 608.32 739.6 570.3 739.6 570.3 758.61 513.27 758.61 513.27 777.62 475.25 777.62 475.25 796.63 456.24 796.63 456.24 815.64 418.22 815.64 418.22 834.65 361.19 834.65 361.19 815.64 380.2 815.64 380.2 796.63 437.23 796.63 437.23 777.62 456.24 777.62 456.24 758.61 494.26 758.61 494.26 739.6 551.29 739.6 551.29 720.59 589.31 720.59 589.31 701.58 608.32 701.58 608.32 682.57 646.34 682.57 646.34 663.56 684.36 663.56 684.36 644.55 722.38 644.55 722.38 625.54 760.4 625.54 760.4 606.53 798.42 606.53 798.42 587.52 836.44 587.52"/>
  </g>
</svg>