<?xml version="1.0" encoding="UTF-8"?>
<svg id="Layer_1" xmlns="http://www.w3.org/2000/svg" version="1.1" viewBox="0 0 1920 1080">
  <!-- Generator: Adobe Illustrator 29.6.1, SVG Export Plug-In . SVG Version: 2.1.1 Build 9)  -->
  <defs>
    <style>
      .st0 {
        fill: #7a803d;
      }

      .st1 {
        opacity: .05;
      }

      .st2 {
        fill: #006847;
      }

      .st3 {
        fill: #4d2a15;
      }

      .st4 {
        fill: #fff;
      }

      .st5 {
        fill: none;
      }

      .st6 {
        fill: #e1b637;
      }

      .st7 {
        fill: #ce1126;
      }
    </style>
  </defs>
  <g>
    <rect class="st4" x="758.94" y="245.25" width="380.2" height="570.29"/>
    <rect class="st2" x="378.74" y="245.25" width="380.2" height="570.29"/>
    <rect class="st7" x="1141.96" y="245.25" width="380.2" height="570.29"/>
    <g>
      <rect class="st5" x="901.52" y="464.36" width="19.01" height="19.01"/>
      <path class="st5" d="M939.54,540.4v19h19v-19h-19ZM901.52,521.39v19.01h19.01v-19.01h-19.01ZM977.55,502.38v19.01h19.01v-19.01h-19.01ZM977.55,502.38v19.01h19.01v-19.01h-19.01ZM939.54,540.4v19h19v-19h-19ZM901.52,521.39v19.01h19.01v-19.01h-19.01ZM939.54,445.35v19.01h19v-19.01h-19ZM977.55,502.38v19.01h19.01v-19.01h-19.01ZM977.55,502.38v19.01h19.01v-19.01h-19.01ZM939.54,540.4v19h19v-19h-19ZM939.54,445.35v19.01h19v-19.01h-19ZM901.52,521.39v19.01h19.01v-19.01h-19.01ZM939.54,445.35v19.01h19v-19.01h-19ZM977.55,502.38v19.01h19.01v-19.01h-19.01ZM977.55,502.38v19.01h19.01v-19.01h-19.01ZM939.54,540.4v19h19v-19h-19ZM939.54,445.35v19.01h19v-19.01h-19ZM901.52,521.39v19.01h19.01v-19.01h-19.01ZM939.54,445.35v19.01h19v-19.01h-19ZM939.54,540.4v19h19v-19h-19ZM977.55,502.38v19.01h19.01v-19.01h-19.01ZM977.55,502.38v19.01h19.01v-19.01h-19.01ZM939.54,540.4v19h19v-19h-19ZM939.54,445.35v19.01h19v-19.01h-19ZM901.52,521.39v19.01h19.01v-19.01h-19.01ZM901.52,521.39v19.01h19.01v-19.01h-19.01ZM939.54,445.35v19.01h19v-19.01h-19ZM939.54,540.4v19h19v-19h-19ZM977.55,502.38v19.01h19.01v-19.01h-19.01ZM977.55,502.38v19.01h19.01v-19.01h-19.01ZM939.54,559.4h19v-19h-19v19ZM939.54,464.36h19v-19.01h-19v19.01ZM920.53,540.4v-19.01h-19.01v19.01h19.01ZM1053.59,559.4h-19.01v-57.02h-19.01v19.01h-19.01v19.01h19.01v19h-19.01v19.01h-57.02v-19.01h-57.03v-38.01h19.01v-38.02h-19.01v-38.02h57.03v-19.01h38.01v19.01h38.02v19.01h19.01v19.01h19.01v76.03ZM977.55,502.38v19.01h19.01v-19.01h-19.01ZM958.54,540.4h-19v19h19v-19ZM958.54,464.36v-19.01h-19v19.01h19ZM920.53,540.4v-19.01h-19.01v19.01h19.01ZM901.52,521.39v19.01h19.01v-19.01h-19.01ZM939.54,445.35v19.01h19v-19.01h-19ZM939.54,540.4v19h19v-19h-19ZM977.55,502.38v19.01h19.01v-19.01h-19.01ZM977.55,502.38v19.01h19.01v-19.01h-19.01ZM939.54,540.4v19h19v-19h-19ZM939.54,445.35v19.01h19v-19.01h-19ZM901.52,521.39v19.01h19.01v-19.01h-19.01ZM939.54,445.35v19.01h19v-19.01h-19ZM939.54,540.4v19h19v-19h-19ZM977.55,502.38v19.01h19.01v-19.01h-19.01ZM977.55,502.38v19.01h19.01v-19.01h-19.01ZM939.54,445.35v19.01h19v-19.01h-19ZM901.52,521.39v19.01h19.01v-19.01h-19.01ZM939.54,445.35v19.01h19v-19.01h-19ZM939.54,540.4v19h19v-19h-19ZM977.55,502.38v19.01h19.01v-19.01h-19.01ZM977.55,502.38v19.01h19.01v-19.01h-19.01ZM939.54,445.35v19.01h19v-19.01h-19ZM901.52,521.39v19.01h19.01v-19.01h-19.01ZM939.54,445.35v19.01h19v-19.01h-19ZM939.54,540.4v19h19v-19h-19ZM977.55,502.38v19.01h19.01v-19.01h-19.01ZM977.55,502.38v19.01h19.01v-19.01h-19.01ZM939.54,445.35v19.01h19v-19.01h-19ZM901.52,521.39v19.01h19.01v-19.01h-19.01ZM939.54,540.4v19h19v-19h-19ZM977.55,502.38v19.01h19.01v-19.01h-19.01Z"/>
      <line class="st5" x1="958.54" y1="635.44" x2="939.54" y2="635.44"/>
      <polyline class="st5" points="1015.57 616.43 996.56 616.43 977.55 616.43 958.54 616.43 939.54 616.43 920.53 616.43 901.52 616.43 882.51 616.43"/>
      <line class="st5" x1="1072.6" y1="559.4" x2="1053.59" y2="559.4"/>
      <rect class="st6" x="958.54" y="559.4" width="19.01" height="19.01"/>
      <rect class="st6" x="977.55" y="559.4" width="19.01" height="19.01"/>
      <rect class="st6" x="939.54" y="559.4" width="19" height="19.01"/>
      <rect class="st6" x="882.51" y="540.4" width="19.01" height="19"/>
      <polygon class="st0" points="1091.61 501.39 1091.61 577.42 1072.6 577.42 1072.6 596.43 1053.59 596.43 1053.59 615.44 1034.58 615.44 1034.58 634.45 977.55 634.45 977.55 653.46 920.53 653.46 920.53 634.45 863.5 634.45 863.5 615.44 844.49 615.44 844.49 596.43 825.48 596.43 825.48 577.42 806.47 577.42 806.47 501.39 825.48 501.39 825.48 558.41 844.49 558.41 844.49 577.42 863.5 577.42 863.5 596.43 882.51 596.43 882.51 615.44 939.54 615.44 939.54 634.45 958.54 634.45 958.54 615.44 1015.57 615.44 1015.57 596.43 1034.58 596.43 1034.58 577.42 1053.59 577.42 1053.59 558.41 1072.6 558.41 1072.6 501.39 1091.61 501.39"/>
      <polygon class="st3" points="1053.59 483.37 1053.59 559.4 1034.58 559.4 1034.58 502.38 1015.57 502.38 1015.57 521.39 996.56 521.39 996.56 502.38 977.55 502.38 977.55 521.39 996.56 521.39 996.56 540.4 1015.57 540.4 1015.57 559.4 958.54 559.4 958.54 540.4 939.54 540.4 939.54 559.4 901.52 559.4 901.52 540.4 920.53 540.4 920.53 521.39 901.52 521.39 901.52 483.37 920.53 483.37 920.53 464.36 901.52 464.36 901.52 483.37 882.51 483.37 882.51 445.35 939.54 445.35 939.54 464.36 958.54 464.36 958.54 445.35 939.54 445.35 939.54 426.34 977.55 426.34 977.55 445.35 1015.57 445.35 1015.57 464.36 1034.58 464.36 1034.58 483.37 1053.59 483.37"/>
      <line class="st5" x1="1053.59" y1="578.41" x2="1053.59" y2="559.4"/>
      <rect class="st6" x="882.51" y="521.39" width="19.01" height="19.01"/>
    </g>
  </g>
  <g class="st1">
    <path class="st5" d="M389.66,749.01h190.1v57.03h-190.1v-57.03ZM1511.24,806.04h-114.06v-38.02h38.02v-19.01h19.01v-19.01h38.02v19.01h19.01v57.03ZM902.93,482.87h-19.01v-19.01h19.01v19.01ZM1511.24,311.78h-19.01v19.01h-19.01v-38.02h-76.04v-38.02h114.06v57.03ZM465.7,292.77h-19.01v19.01h-19.01v38.02h-19.01v19.01h-19.01v-114.06h76.04v38.02Z"/>
    <rect class="st4" x="884.92" y="463.86" width="19.01" height="19.01"/>
    <polygon class="st4" points="446.69 254.75 446.69 273.76 427.68 273.76 427.68 292.77 408.67 292.77 408.67 330.79 389.66 330.79 389.66 254.75 446.69 254.75"/>
    <polygon class="st4" points="1511.24 254.75 1511.24 311.78 1492.23 311.78 1492.23 330.79 1473.22 330.79 1473.22 273.76 1416.19 273.76 1416.19 254.75 1511.24 254.75"/>
    <polygon points="465.7 254.75 465.7 292.77 446.69 292.77 446.69 311.78 427.68 311.78 427.68 349.8 408.67 349.8 408.67 368.81 389.66 368.81 389.66 330.79 408.67 330.79 408.67 292.77 427.68 292.77 427.68 273.76 446.69 273.76 446.69 254.75 465.7 254.75"/>
    <polygon points="1473.22 273.76 1473.22 292.77 1397.18 292.77 1397.18 254.75 1416.19 254.75 1416.19 273.76 1473.22 273.76"/>
    <polygon points="1511.24 749.01 1511.24 806.04 1397.18 806.04 1397.18 768.02 1435.2 768.02 1435.2 749.01 1454.21 749.01 1454.21 730 1492.23 730 1492.23 749.01 1511.24 749.01"/>
    <polygon points="579.76 749.01 579.76 806.04 541.74 806.04 541.74 787.03 560.75 787.03 560.75 768.02 465.7 768.02 465.7 787.03 408.67 787.03 408.67 768.02 389.66 768.02 389.66 749.01 579.76 749.01"/>
    <polygon class="st4" points="560.75 768.02 560.75 787.03 541.74 787.03 541.74 806.04 389.66 806.04 389.66 768.02 408.67 768.02 408.67 787.03 465.7 787.03 465.7 768.02 560.75 768.02"/>
  </g>
</svg>