<?xml version="1.0" encoding="UTF-8"?>
<svg id="Layer_1" xmlns="http://www.w3.org/2000/svg" version="1.1" viewBox="0 0 1920 1080">
  <!-- Generator: Adobe Illustrator 29.6.1, SVG Export Plug-In . SVG Version: 2.1.1 Build 9)  -->
  <defs>
    <style>
      .st0, .st1 {
        opacity: .05;
      }

      .st0, .st2 {
        fill: #fff;
      }

      .st3 {
        fill: #012169;
      }

      .st4 {
        fill: #c8102e;
      }
    </style>
  </defs>
  <g>
    <rect class="st3" x="358.37" y="226.33" width="1195.03" height="621.63"/>
    <polygon class="st4" points="1405.1 467.47 1405.1 486.48 1386.09 486.48 1386.09 505.49 1367.08 505.49 1367.08 486.48 1348.07 486.48 1348.07 467.47 1367.08 467.47 1367.08 448.46 1386.09 448.46 1386.09 467.47 1405.1 467.47"/>
    <polygon class="st4" points="1291.04 714.59 1291.04 733.6 1272.03 733.6 1272.03 752.61 1253.02 752.61 1253.02 733.6 1234.01 733.6 1234.01 714.59 1253.02 714.59 1253.02 695.58 1272.03 695.58 1272.03 714.59 1291.04 714.59"/>
    <polygon class="st4" points="1291.04 353.41 1291.04 372.42 1272.03 372.42 1272.03 391.43 1253.02 391.43 1253.02 372.42 1234.01 372.42 1234.01 353.41 1253.02 353.41 1253.02 334.4 1272.03 334.4 1272.03 353.41 1291.04 353.41"/>
    <g>
      <polygon class="st4" points="548.65 320.84 548.65 339.85 491.62 339.85 491.62 320.84 434.59 320.84 434.59 301.83 396.57 301.83 396.57 282.82 377.56 282.82 377.56 263.81 358.55 263.81 358.55 244.8 396.57 244.8 396.57 263.81 415.58 263.81 415.58 282.82 453.6 282.82 453.6 301.83 510.63 301.83 510.63 320.84 548.65 320.84"/>
      <polygon class="st4" points="947.86 360.11 947.86 417.14 681.72 417.14 681.72 550.2 624.69 550.2 624.69 417.14 358.55 417.14 358.55 360.11 624.69 360.11 624.69 227.04 681.72 227.04 681.72 360.11 947.86 360.11"/>
      <polygon class="st2" points="624.69 226.79 624.69 359.86 358.55 359.86 358.55 340.85 548.65 340.85 548.65 321.84 510.63 321.84 510.63 302.83 453.6 302.83 453.6 283.82 415.58 283.82 415.58 264.81 396.57 264.81 396.57 245.8 358.55 245.8 358.55 226.79 415.58 226.79 415.58 245.8 434.59 245.8 434.59 264.81 472.61 264.81 472.61 283.82 529.64 283.82 529.64 302.83 567.66 302.83 567.66 321.84 586.67 321.84 586.67 302.83 605.68 302.83 605.68 226.79 624.69 226.79"/>
      <polygon class="st4" points="548.65 454.72 548.65 435.71 491.62 435.71 491.62 454.72 434.59 454.72 434.59 473.73 396.57 473.73 396.57 492.74 377.56 492.74 377.56 511.75 358.55 511.75 358.55 530.76 396.57 530.76 396.57 511.75 415.58 511.75 415.58 492.74 453.6 492.74 453.6 473.73 510.63 473.73 510.63 454.72 548.65 454.72"/>
      <polygon class="st2" points="624.69 550.07 624.69 417 358.55 417 358.55 436.01 548.65 436.01 548.65 455.02 510.63 455.02 510.63 474.03 453.6 474.03 453.6 493.04 415.58 493.04 415.58 512.05 396.57 512.05 396.57 531.06 358.55 531.06 358.55 550.07 415.58 550.07 415.58 531.06 434.59 531.06 434.59 512.05 472.61 512.05 472.61 493.04 529.64 493.04 529.64 474.03 567.66 474.03 567.66 455.02 586.67 455.02 586.67 474.03 605.68 474.03 605.68 550.07 624.69 550.07"/>
      <polygon class="st4" points="758.18 455.36 758.18 436.35 815.21 436.35 815.21 455.36 872.24 455.36 872.24 474.37 910.26 474.37 910.26 493.38 929.27 493.38 929.27 512.39 948.28 512.39 948.28 531.4 910.26 531.4 910.26 512.39 891.25 512.39 891.25 493.38 853.23 493.38 853.23 474.37 796.2 474.37 796.2 455.36 758.18 455.36"/>
      <polygon class="st2" points="682.14 550.07 682.14 417 948.28 417 948.28 436.01 758.18 436.01 758.18 455.02 796.2 455.02 796.2 474.03 853.23 474.03 853.23 493.04 891.25 493.04 891.25 512.05 910.26 512.05 910.26 531.06 948.28 531.06 948.28 550.07 891.25 550.07 891.25 531.06 872.24 531.06 872.24 512.05 834.22 512.05 834.22 493.04 777.19 493.04 777.19 474.03 739.17 474.03 739.17 455.02 720.16 455.02 720.16 474.03 701.15 474.03 701.15 550.07 682.14 550.07"/>
      <polygon class="st4" points="757.63 320.84 757.63 339.85 814.66 339.85 814.66 320.84 871.69 320.84 871.69 301.83 909.71 301.83 909.71 282.82 928.72 282.82 928.72 263.81 947.73 263.81 947.73 244.8 909.71 244.8 909.71 263.81 890.7 263.81 890.7 282.82 852.68 282.82 852.68 301.83 795.65 301.83 795.65 320.84 757.63 320.84"/>
      <polygon class="st2" points="681.59 226.79 681.59 359.86 947.73 359.86 947.73 340.85 757.63 340.85 757.63 321.84 795.65 321.84 795.65 302.83 852.68 302.83 852.68 283.82 890.7 283.82 890.7 264.81 909.71 264.81 909.71 245.8 947.73 245.8 947.73 226.79 890.7 226.79 890.7 245.8 871.69 245.8 871.69 264.81 833.67 264.81 833.67 283.82 776.64 283.82 776.64 302.83 738.62 302.83 738.62 321.84 719.61 321.84 719.61 302.83 700.6 302.83 700.6 226.79 681.59 226.79"/>
    </g>
    <polygon class="st4" points="1138.96 505.49 1138.96 524.5 1119.95 524.5 1119.95 543.51 1100.94 543.51 1100.94 524.5 1081.93 524.5 1081.93 505.49 1100.94 505.49 1100.94 486.48 1119.95 486.48 1119.95 505.49 1138.96 505.49"/>
  </g>
  <polygon class="st1" points="900.86 536.15 900.86 555.15 862.84 555.15 862.84 536.15 824.82 536.15 824.82 517.14 748.78 517.14 748.78 536.15 729.77 536.15 729.77 555.15 691.75 555.15 691.75 460.11 748.78 460.11 748.78 479.12 767.79 479.12 767.79 498.13 843.83 498.13 843.83 517.14 881.85 517.14 881.85 536.15 900.86 536.15"/>
  <polygon class="st1" points="1545.19 689.22 1545.19 841.3 1355.09 841.3 1355.09 822.29 1374.1 822.29 1374.1 803.28 1450.14 803.28 1450.14 765.26 1488.16 765.26 1488.16 746.25 1507.17 746.25 1507.17 727.24 1526.18 727.24 1526.18 689.22 1545.19 689.22"/>
  <polygon class="st1" points="1431.13 442.1 1431.13 518.14 1393.11 518.14 1393.11 537.15 1355.09 537.15 1355.09 499.13 1412.12 499.13 1412.12 442.1 1431.13 442.1"/>
  <polygon class="st0" points="1545.19 232.99 1545.19 328.04 1526.18 328.04 1526.18 309.03 1507.17 309.03 1507.17 271.01 1488.16 271.01 1488.16 290.02 1431.13 290.02 1431.13 252 1355.09 252 1355.09 232.99 1545.19 232.99"/>
  <polygon class="st1" points="1317.07 727.24 1317.07 765.26 1298.06 765.26 1298.06 784.27 1279.05 784.27 1279.05 803.28 1222.02 803.28 1222.02 765.26 1241.03 765.26 1241.03 746.25 1298.06 746.25 1298.06 727.24 1317.07 727.24"/>
  <polygon class="st0" points="1279.05 309.03 1279.05 347.05 1260.04 347.05 1260.04 385.07 1222.02 385.07 1222.02 347.05 1241.03 347.05 1241.03 309.03 1279.05 309.03"/>
  <polygon class="st0" points="1126.97 480.12 1126.97 518.14 1107.96 518.14 1107.96 537.15 1069.94 537.15 1069.94 518.14 1088.95 518.14 1088.95 480.12 1126.97 480.12"/>
  <polygon class="st1" points="632.72 441.1 632.72 536.15 613.71 536.15 613.71 555.15 594.7 555.15 594.7 517.14 575.69 517.14 575.69 498.13 518.66 498.13 518.66 517.14 499.65 517.14 499.65 536.15 480.64 536.15 480.64 555.15 423.61 555.15 423.61 574.16 366.58 574.16 366.58 555.15 404.6 555.15 404.6 536.15 423.61 536.15 423.61 517.14 480.64 517.14 480.64 498.13 499.65 498.13 499.65 479.12 575.69 479.12 575.69 460.11 594.7 460.11 594.7 441.1 632.72 441.1"/>
  <polygon class="st0" points="613.71 232.99 613.71 309.03 594.7 309.03 594.7 328.04 556.68 328.04 556.68 309.03 518.66 309.03 518.66 290.02 461.63 290.02 461.63 271.01 404.6 271.01 404.6 290.02 423.61 290.02 423.61 309.03 385.59 309.03 385.59 290.02 366.58 290.02 366.58 252 385.59 252 385.59 232.99 442.62 232.99 442.62 252 518.66 252 518.66 271.01 537.67 271.01 537.67 290.02 556.68 290.02 556.68 271.01 575.69 271.01 575.69 252 594.7 252 594.7 232.99 613.71 232.99"/>
  <polygon class="st0" points="910.87 227.99 910.87 266.01 891.86 266.01 891.86 285.02 815.82 285.02 815.82 304.03 758.79 304.03 758.79 323.04 720.77 323.04 720.77 304.03 701.76 304.03 701.76 227.99 720.77 227.99 720.77 247 834.83 247 834.83 227.99 910.87 227.99"/>
  <polygon class="st1" points="537.67 803.28 537.67 822.29 518.66 822.29 518.66 841.3 404.6 841.3 404.6 822.29 366.58 822.29 366.58 765.26 385.59 765.26 385.59 708.23 442.62 708.23 442.62 784.27 480.64 784.27 480.64 803.28 537.67 803.28"/>
  <polygon class="st1" points="957.89 479.12 957.89 517.14 938.88 517.14 938.88 498.13 919.87 498.13 919.87 517.14 900.86 517.14 900.86 479.12 862.84 479.12 862.84 460.11 786.8 460.11 786.8 441.1 881.85 441.1 881.85 460.11 919.87 460.11 919.87 479.12 957.89 479.12"/>
</svg>