<?xml version="1.0" encoding="UTF-8"?>
<svg id="Layer_1" xmlns="http://www.w3.org/2000/svg" version="1.1" viewBox="0 0 1920 1080">
  <!-- Generator: Adobe Illustrator 29.6.1, SVG Export Plug-In . SVG Version: 2.1.1 Build 9)  -->
  <defs>
    <style>
      .st0 {
        fill: #fff;
      }

      .st0, .st1, .st2 {
        opacity: .05;
      }

      .st2 {
        fill: none;
      }

      .st3 {
        fill: #9b1515;
      }

      .st4 {
        fill: #3b2e67;
      }

      .st5 {
        fill: #f8f8f9;
      }
    </style>
  </defs>
  <g>
    <rect class="st5" x="380.2" y="245.35" width="1159.6" height="570.3"/>
    <g>
      <polygon class="st4" points="822.91 607.13 822.91 474.07 841.92 474.07 841.92 531.09 860.93 531.09 860.93 550.1 879.94 550.1 879.94 569.11 917.97 569.11 917.97 550.1 955.99 550.1 955.99 512.09 994.01 512.09 994.01 493.08 1051.04 493.08 1051.04 512.09 1089.06 512.09 1089.06 550.1 1108.07 550.1 1108.07 588.12 1089.06 588.12 1089.06 626.14 1070.05 626.14 1070.05 645.15 1051.04 645.15 1051.04 664.16 1013.01 664.16 1013.01 683.17 917.97 683.17 917.97 664.16 879.94 664.16 879.94 645.15 860.93 645.15 860.93 626.14 841.92 626.14 841.92 607.13 822.91 607.13"/>
      <polygon class="st3" points="1108.06 454.46 1108.06 587.52 1089.05 587.52 1089.05 530.5 1070.04 530.5 1070.04 511.49 1051.03 511.49 1051.03 492.48 1013.01 492.48 1013.01 511.49 974.99 511.49 974.99 549.5 936.97 549.5 936.97 568.51 879.94 568.51 879.94 549.5 841.92 549.5 841.92 511.49 822.91 511.49 822.91 473.47 841.92 473.47 841.92 435.45 860.93 435.45 860.93 416.44 879.94 416.44 879.94 397.43 917.96 397.43 917.96 378.42 1013.01 378.42 1013.01 397.43 1051.03 397.43 1051.03 416.44 1070.04 416.44 1070.04 435.45 1089.05 435.45 1089.05 454.46 1108.06 454.46"/>
    </g>
    <g>
      <rect x="710.33" y="291.24" width="24.26" height="139.7" transform="translate(337.77 -349.08) rotate(35)"/>
      <rect x="738.23" y="319.14" width="24.26" height="139.7" transform="translate(358.82 -360.04) rotate(35)"/>
      <rect x="766.13" y="347.04" width="24.26" height="139.7" transform="translate(379.87 -371) rotate(35)"/>
    </g>
    <g>
      <rect x="1148.15" y="347.04" width="24.26" height="139.7" transform="translate(-29.28 740.91) rotate(-35)"/>
      <rect x="1151.23" y="326.97" width="24.26" height="53.16" transform="translate(7.56 731.09) rotate(-34.99)"/>
      <rect x="1197.91" y="388.46" width="24.25" height="63.49" transform="translate(-22.23 769.91) rotate(-34.99)"/>
      <rect x="1203.95" y="291.24" width="24.26" height="139.7" transform="translate(12.81 762.82) rotate(-35)"/>
    </g>
    <g>
      <rect x="1203.95" y="628.74" width="24.26" height="139.7" transform="translate(1811.54 1968.36) rotate(-145)"/>
      <rect x="1176.05" y="600.84" width="24.26" height="139.7" transform="translate(1776.79 1901.6) rotate(-145)"/>
      <rect x="1148.15" y="572.94" width="24.26" height="139.7" transform="translate(1742.04 1834.84) rotate(-145)"/>
    </g>
    <g>
      <rect x="710.33" y="628.74" width="24.26" height="139.7" transform="translate(-270.04 540.73) rotate(-35)"/>
      <rect x="713.41" y="608.67" width="24.26" height="53.16" transform="translate(-233.14 530.93) rotate(-34.99)"/>
      <rect x="760.09" y="670.16" width="24.25" height="63.49" transform="translate(-262.93 569.76) rotate(-34.99)"/>
      <rect x="766.13" y="572.94" width="24.26" height="139.7" transform="translate(-227.94 562.64) rotate(-35)"/>
    </g>
  </g>
  <g>
    <path class="st2" d="M1501.78,777.62h-95.05v-19.01h19.01v-19.01h19.01v-19.01h38.02v-38.02h19.01v95.05ZM475.25,321.39h19.01v-19.01h133.07v38.02h-19.01v19.01h-19.01v19.01h-95.05v19.01h-19.01v-76.04ZM722.38,416.44h19.01v-38.02h38.02v-19.01h19.01v38.02h-19.01v19.01h-19.01v38.02h-38.02v-38.02ZM855.45,416.44v-19.01h38.02v-19.01h57.03v-19.01h95.04v57.03h-57.03v-19.01h-19.01v19.01h-38.01v19.01h-38.02v19.01h-38.02v19.01h-19.01v38.02h-19.01v-95.05h38.02Z"/>
    <polygon class="st0" points="1045.54 359.41 1045.54 416.44 988.51 416.44 988.51 397.43 969.5 397.43 969.5 416.44 931.49 416.44 931.49 435.45 893.47 435.45 893.47 454.46 855.45 454.46 855.45 473.47 836.44 473.47 836.44 511.49 817.43 511.49 817.43 416.44 855.45 416.44 855.45 397.43 893.47 397.43 893.47 378.42 950.5 378.42 950.5 359.41 1045.54 359.41"/>
    <line class="st2" x1="988.51" y1="416.44" x2="969.5" y2="416.44"/>
    <polygon class="st1" points="1501.78 682.57 1501.78 777.62 1406.73 777.62 1406.73 758.61 1425.74 758.61 1425.74 739.6 1444.75 739.6 1444.75 720.59 1482.77 720.59 1482.77 682.57 1501.78 682.57"/>
    <polygon class="st0" points="798.42 359.41 798.42 397.43 779.41 397.43 779.41 416.44 760.4 416.44 760.4 454.46 722.38 454.46 722.38 416.44 741.39 416.44 741.39 378.42 779.41 378.42 779.41 359.41 798.42 359.41"/>
    <polygon class="st0" points="627.33 302.38 627.33 340.4 608.32 340.4 608.32 359.41 589.31 359.41 589.31 378.42 494.26 378.42 494.26 397.43 475.25 397.43 475.25 321.39 494.26 321.39 494.26 302.38 627.33 302.38"/>
  </g>
</svg>