<?xml version="1.0" encoding="UTF-8"?>
<svg id="Layer_1" xmlns="http://www.w3.org/2000/svg" version="1.1" viewBox="0 0 1920 1080">
  <!-- Generator: Adobe Illustrator 29.6.1, SVG Export Plug-In . SVG Version: 2.1.1 Build 9)  -->
  <defs>
    <style>
      .st0 {
        fill: #fff;
      }

      .st1 {
        fill: #308738;
      }

      .st2 {
        fill: none;
      }

      .st3 {
        fill: #ee162e;
      }

      .st4 {
        fill: #3081f7;
      }

      .st5 {
        opacity: .05;
      }
    </style>
  </defs>
  <g>
    <rect class="st4" x="380.2" y="245.35" width="1159.6" height="190.1"/>
    <rect class="st1" x="380.2" y="625.54" width="1159.6" height="190.1"/>
    <rect class="st0" x="381" y="454.46" width="1158.8" height="150.54"/>
    <g>
      <path class="st2" d="M646.34,340.4h-19.01v-19.01h19.01v19.01ZM627.33,378.42h19.01v19.01h-19.01v-19.01ZM684.36,378.42h19.01v19.01h-19.01v-19.01ZM570.3,378.42h19.01v19.01h-19.01v-19.01ZM646.34,340.4h-19.01v-19.01h19.01v19.01ZM627.33,378.42h19.01v19.01h-19.01v-19.01ZM684.36,378.42h19.01v19.01h-19.01v-19.01ZM570.3,378.42h19.01v19.01h-19.01v-19.01ZM646.34,340.4h-19.01v-19.01h19.01v19.01ZM627.33,378.42h19.01v19.01h-19.01v-19.01ZM684.36,378.42h19.01v19.01h-19.01v-19.01ZM570.3,378.42h19.01v19.01h-19.01v-19.01ZM646.34,340.4h-19.01v-19.01h19.01v19.01ZM627.33,378.42h19.01v19.01h-19.01v-19.01ZM684.36,378.42h19.01v19.01h-19.01v-19.01ZM570.3,378.42h19.01v19.01h-19.01v-19.01ZM646.34,340.4h-19.01v-19.01h19.01v19.01ZM627.33,378.42h19.01v19.01h-19.01v-19.01ZM684.36,378.42h19.01v19.01h-19.01v-19.01ZM570.3,378.42h19.01v19.01h-19.01v-19.01ZM646.34,340.4h-19.01v-19.01h19.01v19.01ZM627.33,378.42h19.01v19.01h-19.01v-19.01ZM684.36,378.42h19.01v19.01h-19.01v-19.01ZM570.3,378.42h19.01v19.01h-19.01v-19.01ZM646.34,340.4h-19.01v-19.01h19.01v19.01ZM627.33,378.42h19.01v19.01h-19.01v-19.01ZM684.36,378.42h19.01v19.01h-19.01v-19.01ZM570.3,378.42h19.01v19.01h-19.01v-19.01ZM627.33,321.39h19.01v19.01h-19.01v-19.01ZM741.39,321.39h19.01v19.01h-19.01v-19.01ZM817.43,340.4h-19.01v-19.01h19.01v19.01ZM627.33,378.42h19.01v19.01h-19.01v-19.01ZM684.36,378.42h19.01v19.01h-19.01v-19.01ZM741.39,378.42h19.01v19.01h-19.01v-19.01ZM798.42,378.42h19.01v19.01h-19.01v-19.01ZM703.37,340.4h-19.01v-19.01h19.01v19.01ZM570.3,378.42h19.01v19.01h-19.01v-19.01ZM1539.8,454.46H380.2v-19.01h1159.6v19.01ZM1539.8,625.54H380.2v-19.01h1159.6v19.01ZM684.36,264.36h19.01v19.01h-19.01v-19.01ZM741.39,264.36h19.01v19.01h-19.01v-19.01ZM798.42,264.36h19.01v19.01h-19.01v-19.01ZM627.33,321.39h19.01v19.01h-19.01v-19.01ZM684.36,321.39h19.01v19.01h-19.01v-19.01ZM741.39,321.39h19.01v19.01h-19.01v-19.01ZM798.42,321.39h19.01v19.01h-19.01v-19.01ZM570.3,378.42h19.01v19.01h-19.01v-19.01ZM627.33,378.42h19.01v19.01h-19.01v-19.01ZM684.36,378.42h19.01v19.01h-19.01v-19.01ZM741.39,378.42h19.01v19.01h-19.01v-19.01ZM798.42,378.42h19.01v19.01h-19.01v-19.01ZM494.26,397.43v-19.01h-19.01v-19.01h-19.01v-57.03h19.01v-19.01h19.01v-19.01h57.03v19.01h-38.02v19.01h-19.01v57.03h19.01v19.01h19.01v19.01h19.01v19.01h-38.02v-19.01h-19.01ZM627.33,321.39h19.01v19.01h-19.01v-19.01ZM741.39,321.39h19.01v19.01h-19.01v-19.01ZM817.43,340.4h-19.01v-19.01h19.01v19.01ZM627.33,378.42h19.01v19.01h-19.01v-19.01ZM684.36,378.42h19.01v19.01h-19.01v-19.01ZM741.39,378.42h19.01v19.01h-19.01v-19.01ZM798.42,378.42h19.01v19.01h-19.01v-19.01ZM703.37,340.4h-19.01v-19.01h19.01v19.01ZM570.3,378.42h19.01v19.01h-19.01v-19.01ZM646.34,340.4h-19.01v-19.01h19.01v19.01ZM627.33,378.42h19.01v19.01h-19.01v-19.01ZM684.36,378.42h19.01v19.01h-19.01v-19.01ZM570.3,378.42h19.01v19.01h-19.01v-19.01ZM646.34,340.4h-19.01v-19.01h19.01v19.01ZM627.33,378.42h19.01v19.01h-19.01v-19.01ZM684.36,378.42h19.01v19.01h-19.01v-19.01ZM570.3,378.42h19.01v19.01h-19.01v-19.01ZM646.34,340.4h-19.01v-19.01h19.01v19.01ZM627.33,378.42h19.01v19.01h-19.01v-19.01ZM684.36,378.42h19.01v19.01h-19.01v-19.01ZM570.3,378.42h19.01v19.01h-19.01v-19.01ZM646.34,340.4h-19.01v-19.01h19.01v19.01ZM627.33,378.42h19.01v19.01h-19.01v-19.01ZM684.36,378.42h19.01v19.01h-19.01v-19.01ZM570.3,378.42h19.01v19.01h-19.01v-19.01ZM646.34,340.4h-19.01v-19.01h19.01v19.01ZM627.33,378.42h19.01v19.01h-19.01v-19.01ZM684.36,378.42h19.01v19.01h-19.01v-19.01ZM570.3,378.42h19.01v19.01h-19.01v-19.01ZM646.34,340.4h-19.01v-19.01h19.01v19.01ZM627.33,378.42h19.01v19.01h-19.01v-19.01ZM684.36,378.42h19.01v19.01h-19.01v-19.01ZM570.3,378.42h19.01v19.01h-19.01v-19.01ZM646.34,340.4h-19.01v-19.01h19.01v19.01ZM627.33,378.42h19.01v19.01h-19.01v-19.01ZM684.36,378.42h19.01v19.01h-19.01v-19.01ZM570.3,378.42h19.01v19.01h-19.01v-19.01Z"/>
      <rect class="st0" x="741.39" y="264.36" width="19.01" height="19.01"/>
      <rect class="st0" x="798.42" y="264.36" width="19.01" height="19.01"/>
      <rect class="st0" x="798.42" y="321.39" width="19.01" height="19.01"/>
      <rect class="st0" x="798.42" y="378.42" width="19.01" height="19.01"/>
      <rect class="st0" x="741.39" y="321.39" width="19.01" height="19.01"/>
      <polygon class="st0" points="488.33 359.41 507.34 359.41 507.34 378.42 545.36 378.42 545.36 397.43 488.33 397.43 488.33 378.42 469.32 378.42 469.32 359.41 450.31 359.41 450.31 307.14 469.32 307.14 469.32 288.12 488.33 288.12 488.33 269.11 545.36 269.11 545.36 288.12 507.34 288.12 507.34 307.14 488.33 307.14 488.33 359.41"/>
      <rect class="st0" x="684.36" y="264.36" width="19.01" height="19.01"/>
      <rect class="st0" x="684.36" y="321.39" width="19.01" height="19.01"/>
      <rect class="st0" x="627.33" y="321.39" width="19.01" height="19.01"/>
      <rect class="st0" x="570.3" y="378.42" width="19.01" height="19.01"/>
      <rect class="st0" x="627.33" y="378.42" width="19.01" height="19.01"/>
      <rect class="st0" x="684.36" y="378.42" width="19.01" height="19.01"/>
      <rect class="st0" x="741.39" y="378.42" width="19.01" height="19.01"/>
      <rect class="st3" x="380.2" y="435.45" width="1159.6" height="19.01"/>
      <rect class="st3" x="380.2" y="606.53" width="1159.6" height="19.01"/>
    </g>
    <polyline class="st2" points="515.37 330.89 494.26 330.89 456.24 330.89"/>
    <polyline class="st2" points="456.24 326.14 494.26 326.14 515.37 326.14"/>
  </g>
  <g class="st5">
    <path class="st2" d="M380.2,264.36h19.01v-19.01h38.02v38.02h-19.01v19.01h-38.02v-38.02h0ZM1520.79,321.39h-19.01v-19.01h-57.03v-19.01h-38.02v-19.01h114.06v57.03h0ZM1520.79,815.64h-76.04v-57.03h19.01v-19.01h38.02v-19.01h19.01v95.05h0ZM399.21,739.6h19.01v19.01h19.01v19.01h19.01v19.01h19.01v19.01h-76.04v-76.04h0ZM399.21,644.55h19.01v19.01h19.01v38.02h-38.02v-57.03h0ZM437.23,302.38h19.01v-19.01h19.01v-19.01h57.03v19.01h-38.02v19.01h-19.01v19.01h-38.02v-19.01h0ZM1501.78,682.57h-76.04v-19.01h-76.04v-19.01h152.08v38.02h0ZM608.32,321.39h57.03v38.02h-57.03v-38.02h0ZM722.38,264.36h19.01v19.01h19.01v19.01h-38.02v-38.02h0ZM798.42,321.39v19.01h19.01v19.01h-38.02v-38.02h19.01ZM665.35,264.36h38.02v38.02h-38.02v-38.02Z"/>
    <polygon class="st0" points="760.4 283.37 760.4 302.38 722.38 302.38 722.38 264.36 741.39 264.36 741.39 283.37 760.4 283.37"/>
    <polygon class="st0" points="817.43 340.4 817.43 359.41 779.41 359.41 779.41 321.39 798.42 321.39 798.42 340.4 817.43 340.4"/>
    <polygon points="1501.78 644.55 1501.78 682.57 1425.74 682.57 1425.74 663.56 1349.7 663.56 1349.7 644.55 1501.78 644.55"/>
    <polygon points="1520.79 720.59 1520.79 815.64 1444.75 815.64 1444.75 758.61 1463.76 758.61 1463.76 739.6 1501.78 739.6 1501.78 720.59 1520.79 720.59"/>
    <polygon points="475.25 796.63 475.25 815.64 399.21 815.64 399.21 739.6 418.22 739.6 418.22 758.61 437.23 758.61 437.23 777.62 456.24 777.62 456.24 796.63 475.25 796.63"/>
    <polygon class="st0" points="1520.79 264.36 1520.79 321.39 1501.78 321.39 1501.78 302.38 1444.75 302.38 1444.75 283.37 1406.73 283.37 1406.73 264.36 1520.79 264.36"/>
    <rect class="st0" x="608.32" y="321.39" width="57.03" height="38.02"/>
    <polygon class="st0" points="532.28 264.36 532.28 283.37 494.26 283.37 494.26 302.38 475.25 302.38 475.25 321.39 437.23 321.39 437.23 302.38 456.24 302.38 456.24 283.37 475.25 283.37 475.25 264.36 532.28 264.36"/>
    <rect class="st0" x="665.35" y="264.36" width="38.02" height="38.02"/>
    <polygon class="st0" points="437.23 245.35 437.23 283.37 418.22 283.37 418.22 302.38 380.2 302.38 380.2 264.36 399.21 264.36 399.21 245.35 437.23 245.35"/>
    <polygon points="437.23 663.56 437.23 701.58 399.21 701.58 399.21 644.55 418.22 644.55 418.22 663.56 437.23 663.56"/>
  </g>
</svg>